<?xml version="1.0" encoding="UTF-8" standalone="no"?>
<!-- Created with Inkscape (http://www.inkscape.org/) -->

<svg
   width="256.24335mm"
   height="140.0903mm"
   viewBox="0 0 256.24335 140.0903"
   version="1.1"
   id="svg5"
   inkscape:version="1.1 (c68e22c387, 2021-05-23)"
   sodipodi:docname="logo completo com texto.svg"
   xmlns:inkscape="http://www.inkscape.org/namespaces/inkscape"
   xmlns:sodipodi="http://sodipodi.sourceforge.net/DTD/sodipodi-0.dtd"
   xmlns="http://www.w3.org/2000/svg"
   xmlns:svg="http://www.w3.org/2000/svg">
  <sodipodi:namedview
     id="namedview7"
     pagecolor="#505050"
     bordercolor="#eeeeee"
     borderopacity="1"
     inkscape:pageshadow="0"
     inkscape:pageopacity="0"
     inkscape:pagecheckerboard="0"
     inkscape:document-units="mm"
     showgrid="false"
     fit-margin-top="0"
     fit-margin-left="0"
     fit-margin-right="0"
     fit-margin-bottom="0"
     inkscape:zoom="0.76791526"
     inkscape:cx="341.83459"
     inkscape:cy="216.8208"
     inkscape:window-width="1842"
     inkscape:window-height="1051"
     inkscape:window-x="-9"
     inkscape:window-y="-9"
     inkscape:window-maximized="1"
     inkscape:current-layer="layer1" />
  <defs
     id="defs2" />
  <g
     inkscape:label="Camada 1"
     inkscape:groupmode="layer"
     id="layer1"
     transform="translate(22.508102,-9.3976039)">
    <path
       style="fill:#000000;stroke-width:0.264583"
       d="m 101.05379,148.29727 v -1.19062 h 1.02526 c 0.56389,0 1.39733,0.0744 1.85208,0.16536 0.75534,0.15107 0.82682,0.254 0.82682,1.19062 v 1.02527 h -1.85208 -1.85208 z m 4.70958,1.04951 c -0.091,-0.091 -0.1805,-2.12058 -0.19882,-4.51011 l -0.0333,-4.34461 h 1.17255 c 0.76529,0 1.22229,0.12966 1.31579,0.37332 0.0788,0.20532 0.16912,2.19962 0.20072,4.43177 l 0.0575,4.05845 -1.17445,0.0784 c -0.64594,0.0431 -1.24892,0.004 -1.33995,-0.0872 z m -7.717066,-0.33106 c -0.0706,-0.11417 0.067,-2.14371 0.30575,-4.51009 l 0.43405,-4.30251 1.19999,0.0783 c 0.659986,0.0431 1.195056,0.19738 1.189036,0.3429 -0.006,0.14552 -0.10975,2.13982 -0.2305,4.43177 l -0.21953,4.16719 h -1.275246 c -0.70139,0 -1.33298,-0.0934 -1.40355,-0.20759 z m 12.873726,-0.32157 c -0.0761,-0.29105 -0.24234,-0.52917 -0.3694,-0.52917 -0.12706,0 -0.65451,-0.63783 -1.17212,-1.4174 -0.89458,-1.34733 -0.93722,-1.51408 -0.8626,-3.37344 l 0.0785,-1.95604 1.02965,1.52136 c 0.56631,0.83674 1.07511,1.52135 1.13067,1.52135 0.0556,0 0.0216,-0.9525 -0.0755,-2.11667 l -0.17652,-2.11666 h 1.21245 1.21245 l 0.14643,1.12448 c 0.0805,0.61846 0.13926,1.42213 0.13049,1.78593 -0.009,0.36381 0.14839,1.79256 0.34923,3.17501 0.25552,1.75881 0.28078,2.5719 0.0842,2.70792 -0.15455,0.10692 -0.79817,0.19621 -1.43026,0.19844 -0.92864,0.003 -1.17581,-0.0975 -1.28763,-0.52511 z m -18.82756,-0.50224 c -0.296225,-0.18766 -0.307853,-0.5129 -0.06371,-1.78189 0.297688,-1.54729 0.44618,-2.38716 0.703556,-3.97931 0.143102,-0.88524 0.145767,-0.88307 -1.553133,-1.26238 -0.682845,-0.15245 -0.730758,-0.23913 -0.562073,-1.01678 0.101425,-0.46756 0.292859,-0.91936 0.425413,-1.00399 0.132553,-0.0846 1.337984,0.0606 2.678739,0.32273 1.340753,0.26214 2.824687,0.48021 3.297632,0.48461 0.8192,0.008 0.85989,0.056 0.85989,1.02223 0,0.55783 -0.0655,1.07973 -0.14553,1.15977 -0.08,0.08 -0.58596,0.0462 -1.12425,-0.0752 -0.538292,-0.12141 -1.067945,-0.1315 -1.177012,-0.0224 -0.109064,0.10906 -0.396481,1.5915 -0.638704,3.29429 l -0.440404,3.096 -0.949026,-0.004 c -0.521968,-0.002 -1.112092,-0.10735 -1.311392,-0.2336 z m 1.69463,-3.44447 c -0.02611,-0.48862 -0.183518,-0.6835 -0.552098,-0.6835 -0.530656,0 -0.709832,0.57342 -0.337582,1.08038 0.398018,0.54204 0.927224,0.30597 0.88968,-0.39688 z m -0.691052,0.48507 c -0.01114,-0.0606 -0.05722,-0.29876 -0.10241,-0.52916 -0.04519,-0.23041 0.06954,-0.41893 0.254945,-0.41893 0.185409,0 0.314314,0.15531 0.286456,0.34512 -0.04975,0.33896 -0.399306,0.81909 -0.438991,0.60297 z m 1.448197,-1.52135 c 0.07495,-0.12127 -0.03185,-0.22049 -0.237329,-0.22049 -0.205478,0 -0.312277,0.0992 -0.237328,0.22049 0.07495,0.12127 0.181745,0.22049 0.237328,0.22049 0.05558,0 0.162383,-0.0992 0.237329,-0.22049 z m 22.795375,3.62594 c -0.0882,-0.63607 -0.21564,-1.63275 -0.28321,-2.21483 -0.0676,-0.58208 -0.21585,-1.53458 -0.32953,-2.11667 l -0.20668,-1.05833 -1.24012,0.0891 c -1.14041,0.0819 -1.25371,0.035 -1.40904,-0.58396 -0.0929,-0.37016 -0.12051,-0.81824 -0.0613,-0.99573 0.0614,-0.18434 1.56696,-0.58965 3.51109,-0.94526 3.69511,-0.67587 3.82931,-0.64863 3.83729,0.77912 0.004,0.64159 -0.11703,0.74384 -1.05428,0.89371 -0.97674,0.15619 -1.05834,0.23394 -1.05834,1.00854 0,0.46162 -0.14882,0.98924 -0.33072,1.17249 -0.26504,0.26699 -0.24675,0.30123 0.0921,0.17234 0.34728,-0.13211 0.50094,0.22882 0.86041,2.0211 0.2523,1.2579 0.33894,2.28063 0.20457,2.41499 -0.12819,0.12819 -0.71428,0.29761 -1.30242,0.3765 l -1.06936,0.14343 z m 1.35306,-2.26781 c 0,-0.18914 -0.10625,-0.34389 -0.2361,-0.34389 -0.12986,0 -0.15115,-0.13746 -0.0473,-0.30547 0.11791,-0.19077 0.0725,-0.23358 -0.12099,-0.11401 -0.17038,0.1053 -0.24636,0.29407 -0.16886,0.41948 0.0775,0.1254 0.002,0.31417 -0.16885,0.41947 -0.1773,0.10958 -0.23935,0.0775 -0.14509,-0.075 0.0906,-0.14657 0.003,-0.48707 -0.19373,-0.75667 -0.33633,-0.45996 -0.3562,-0.45013 -0.32225,0.15946 0.0199,0.3573 0.14759,0.72987 0.28377,0.82793 0.40163,0.2892 1.11942,0.14091 1.11942,-0.23127 z m -0.40722,-1.86525 c 0.3291,-0.41964 0.31974,-0.429 -0.0999,-0.0999 -0.25466,0.19973 -0.46302,0.40808 -0.46302,0.46303 0,0.21776 0.21727,0.0776 0.56292,-0.36313 z m -31.98219,3.87595 c -0.956196,-0.2814 -0.95976,-0.29009 -0.613637,-1.49695 0.205877,-0.71786 0.166388,-0.90139 -0.240859,-1.11934 -0.420838,-0.22523 -0.448852,-0.38537 -0.20589,-1.17701 0.188089,-0.61285 0.465015,-0.94257 0.83617,-0.99558 0.411393,-0.0588 0.541938,-0.25036 0.504659,-0.74072 -0.07775,-1.02274 0.521372,-3.22008 0.919657,-3.37292 0.56324,-0.21613 0.851342,0.25824 1.34384,2.21272 0.446662,1.77257 0.443981,1.8894 -0.09943,4.33521 -0.610532,2.74787 -0.726985,2.86004 -2.444507,2.35459 z m 37.37558,-0.033 c -0.46174,-1.32536 -1.98954,-8.02024 -1.88966,-8.28053 0.12028,-0.31342 1.96008,-0.80253 2.18243,-0.58019 0.10443,0.10443 0.74064,2.26163 1.91283,6.48588 l 0.53587,1.93114 -0.57858,0.21293 c -1.33035,0.4896 -2.04611,0.56597 -2.16289,0.23077 z m 2.77289,-1.40179 c -0.3736,-1.13199 -0.28913,-1.23833 1.43824,-1.81069 1.77183,-0.58708 1.87394,-0.56455 2.19592,0.48456 0.33464,1.09036 0.17302,1.27979 -1.46585,1.71802 -0.62756,0.16781 -1.30025,0.3662 -1.49485,0.44088 -0.22828,0.0876 -0.46723,-0.20787 -0.67346,-0.83277 z m -44.11722,0.27323 c -0.926044,-0.4025 -1.088099,-0.92705 -0.47562,-1.53952 0.211351,-0.21135 0.334737,-0.43382 0.27419,-0.49437 -0.06055,-0.0605 0.12056,-0.87889 0.402466,-1.81855 0.446839,-1.48943 0.714557,-1.88628 2.08815,-3.09536 1.020487,-0.89828 1.722083,-1.33069 1.991381,-1.22735 0.228685,0.0877 0.415787,0.18474 0.415787,0.21552 0,0.4954 -0.894043,2.81628 -1.174562,3.04909 -0.208529,0.17306 -0.595106,1.15485 -0.85906,2.18176 -0.263956,1.02691 -0.61559,1.9193 -0.78141,1.98309 -0.165819,0.0638 -0.241231,0.34642 -0.167579,0.62807 0.163283,0.62439 -0.450815,0.66654 -1.713743,0.11762 z m 0.731353,-1.97979 c -0.137342,-0.25663 -0.164608,-0.56762 -0.06059,-0.6911 0.104021,-0.12347 5.3e-4,-0.0814 -0.229973,0.0935 -0.340521,0.25834 -0.436634,0.84548 -0.264403,1.61523 0.01212,0.0542 0.198138,-0.0476 0.413364,-0.22622 0.277534,-0.23034 0.318706,-0.46043 0.141599,-0.79136 z m 18.252497,0.88596 v -1.22369 l 0.82682,0.16536 c 0.45476,0.0909 0.93101,0.16537 1.05834,0.16537 0.12733,0 0.23151,0.47625 0.23151,1.05833 v 1.05833 h -1.05834 -1.05833 z m 1.45334,0.43298 c 0.0927,-0.14998 -0.0135,-0.19434 -0.24897,-0.10398 -0.45837,0.17589 -0.54224,0.36554 -0.16165,0.36554 0.13693,0 0.32171,-0.1177 0.41062,-0.26156 z m -24.935107,-0.92665 c -0.986195,-0.42865 -0.947748,-0.3329 -0.569428,-1.41815 0.212016,-0.60819 0.454475,-0.83323 0.897734,-0.83323 0.333997,0 0.679537,-0.18833 0.767866,-0.41851 0.226927,-0.59136 0.209031,-0.63982 -0.236276,-0.63982 -0.475369,0 -0.508045,-0.52486 -0.08982,-1.44276 0.201668,-0.44262 0.519494,-0.67391 0.926042,-0.67391 0.697751,0 0.847307,-0.68397 0.253958,-1.16146 -0.310296,-0.2497 -0.310182,-0.42269 7.93e-4,-1.15364 0.201184,-0.47295 0.538438,-0.8599 0.749454,-0.8599 0.812668,0 1.768369,0.65922 2.163802,1.49253 0.377606,0.79574 0.37396,0.97052 -0.04303,2.06239 -0.250579,0.65613 -0.675462,1.26275 -0.944187,1.34804 -0.40128,0.12736 -0.434334,0.24195 -0.184972,0.64124 0.503137,0.80565 -0.401006,2.80724 -1.430118,3.16599 -1.028944,0.3587 -1.205728,0.35019 -2.26178,-0.10881 z m -2.711979,-1.15624 c -0.520716,-0.26256 -0.892358,-0.63337 -0.849085,-0.84718 0.217633,-1.07534 3.397819,-7.65629 3.69983,-7.65629 0.357,0 1.911755,0.7316 1.911755,0.89959 0,0.0707 -1.757519,4.47774 -3.096884,7.76551 -0.178113,0.43722 -0.54944,0.40119 -1.665616,-0.16163 z m 3.901504,-6.49249 c 0.449627,-0.52958 0.448114,-0.5344 -0.04844,-0.15434 -0.470961,0.36048 -0.496879,0.35058 -0.319344,-0.12202 0.178303,-0.47463 0.156602,-0.4824 -0.281191,-0.10067 -0.260922,0.22752 -0.623234,0.35975 -0.805135,0.29385 -0.181901,-0.0659 -0.330729,0.0162 -0.330729,0.18243 0,0.16624 0.119062,0.22866 0.264583,0.13873 0.145521,-0.0899 0.264583,-0.0573 0.264583,0.0726 0,0.43604 0.78707,0.24137 1.255671,-0.31056 z m 46.615652,5.98253 c -0.14411,-0.39461 -0.31359,-0.86448 -0.37661,-1.04416 -0.14258,-0.40648 0.67404,-0.86394 1.54222,-0.86394 0.49615,0 0.72356,0.20251 0.9469,0.8432 0.33137,0.95055 0.24435,1.08299 -0.98018,1.49181 -0.81872,0.27333 -0.88582,0.24803 -1.13233,-0.42691 z m 1.37493,-0.51903 c 0.3291,-0.41965 0.31974,-0.42901 -0.0999,-0.0999 -0.25466,0.19972 -0.46302,0.40808 -0.46302,0.46302 0,0.21776 0.21727,0.0776 0.56292,-0.36312 z m -25.59912,-0.3638 c 0.0909,-0.45476 0.16536,-0.93101 0.16536,-1.05834 0,-0.12733 0.71438,-0.23151 1.5875,-0.23151 h 1.5875 v 1.05833 1.05834 h -1.75286 -1.75286 z m 2.66494,-0.5187 c -0.0852,-0.13784 -0.26767,-0.18091 -0.40551,-0.0957 -0.13784,0.0852 -0.18091,0.26766 -0.0957,0.4055 0.0852,0.13784 0.26766,0.18092 0.4055,0.0957 0.13784,-0.0852 0.18092,-0.26767 0.0957,-0.40551 z m 32.71298,0.22104 c -0.26807,-0.61846 -1.03774,-2.36022 -1.71039,-3.87058 -0.67265,-1.51035 -1.223,-2.85588 -1.223,-2.99006 0,-0.23637 1.83449,-1.12453 1.98302,-0.96007 0.14184,0.15705 3.83782,7.61644 3.83782,7.74566 0,0.1382 -1.98885,1.19953 -2.24783,1.19953 -0.0837,0 -0.37156,-0.50602 -0.63962,-1.12448 z m -0.55214,-4.96094 c 0.34203,-0.22103 0.33504,-0.25704 -0.0505,-0.26053 -0.24607,-0.002 -0.52099,0.11501 -0.61093,0.26053 -0.20695,0.33486 0.14331,0.33486 0.66146,0 z m -0.39687,-0.52917 c 0.0899,-0.14552 -0.0221,-0.26458 -0.24897,-0.26458 -0.22687,0 -0.41249,-0.1389 -0.41249,-0.30868 0,-0.16977 -0.0623,-0.24635 -0.13852,-0.17016 -0.19164,0.19164 0.1451,1.00801 0.41579,1.00801 0.12137,0 0.29425,-0.11906 0.38419,-0.26459 z m -64.095314,5.62362 c -0.472942,-0.23537 -0.859896,-0.52806 -0.859896,-0.65041 0,-0.12235 0.47625,-1.16967 1.058334,-2.32737 0.582083,-1.15771 1.058333,-2.16879 1.058333,-2.24684 0,-0.0781 -0.478671,0.17485 -1.063712,0.56201 -0.585042,0.38716 -1.144395,0.62325 -1.243007,0.52464 -0.256731,-0.25673 1.314275,-3.06365 1.611786,-2.87978 0.136138,0.0841 0.165208,0.0198 0.0646,-0.14301 -0.107675,-0.17422 0.256183,-0.57318 0.884491,-0.96981 l 1.067422,-0.67384 1.33449,0.69779 c 0.73397,0.38378 1.299818,0.79257 1.25744,0.90842 -0.04238,0.11586 -0.850956,1.8834 -1.796841,3.92787 -1.108488,2.39593 -1.860862,3.71386 -2.116667,3.70776 -0.218281,-0.005 -0.783828,-0.20205 -1.256771,-0.43743 z m 4.111033,-6.9827 c -0.06605,-0.19816 -0.185986,-0.0782 -0.279546,0.27954 -0.115086,0.4401 -0.08065,0.5434 0.115687,0.34706 0.153749,-0.15375 0.227486,-0.43572 0.163859,-0.6266 z m 65.207341,5.78998 c -0.14533,-0.18142 -0.52237,-0.84211 -0.83787,-1.46821 -0.45171,-0.89638 -0.68056,-1.10442 -1.0766,-0.97872 -0.67917,0.21556 -1.52415,-1.29196 -1.04666,-1.86731 0.17095,-0.20598 0.24031,-0.55823 0.15413,-0.78279 -0.10295,-0.26828 0.0684,-0.51083 0.49957,-0.7073 0.36093,-0.16445 0.65624,-0.41072 0.65624,-0.54725 0,-0.13654 -0.43392,0.008 -0.96427,0.32069 -1.08957,0.64285 -1.59273,0.56094 -1.9186,-0.31237 -0.31438,-0.8425 0.76326,-1.54256 2.16648,-1.4074 0.56261,0.0542 1.05235,0.1387 1.0883,0.18779 0.69591,0.95034 1.16459,2.07924 1.04812,2.52461 -0.10516,0.40212 0.003,0.60341 0.38936,0.7261 0.47436,0.15056 2.15936,2.70075 2.15936,3.26812 0,0.12093 -0.46199,0.47953 -1.02666,0.79688 -0.80175,0.45061 -1.08454,0.50476 -1.2909,0.24716 z m -1.12202,-5.74551 c 0,-0.14095 -0.17859,-0.18774 -0.39688,-0.10398 -0.21828,0.0838 -0.39687,0.19909 -0.39687,0.25628 0,0.0572 0.17859,0.10398 0.39687,0.10398 0.21829,0 0.39688,-0.11533 0.39688,-0.25628 z m -15.16682,5.08493 c -0.0642,-0.10914 -0.19683,-0.57198 -0.29467,-1.02853 -0.1716,-0.80078 -0.13365,-0.84516 1.07435,-1.25677 0.68873,-0.23468 1.41537,-0.42668 1.61475,-0.42668 0.36286,0 1.17594,1.56487 0.9788,1.88384 -0.11472,0.18563 -2.5649,1.02657 -2.99103,1.02657 -0.14597,0 -0.31796,-0.0893 -0.3822,-0.19843 z m 2.11404,-1.52136 c 0,-0.44016 -0.32702,-0.53072 -0.5593,-0.15489 -0.0823,0.13309 2e-5,0.30229 0.18283,0.37599 0.1828,0.0737 0.3423,0.1434 0.35442,0.15489 0.0121,0.0115 0.022,-0.15771 0.022,-0.37599 z m -61.354014,-0.0469 c -0.823148,-0.56541 -0.941128,-0.75835 -0.718296,-1.17472 0.320963,-0.59972 0.633698,-0.66625 0.411636,-0.0876 -0.09589,0.24989 -0.04813,0.34298 0.122023,0.23782 0.153773,-0.095 0.2164,-0.33747 0.139168,-0.53873 -0.148053,-0.38582 0.624988,-1.95726 0.964242,-1.96012 0.109141,-7.9e-4 0.198438,-0.12732 0.198438,-0.28089 0,-0.15358 0.609568,-1.22949 1.354598,-2.39093 1.497642,-2.33469 1.161984,-2.23903 3.209465,-0.91464 1.065932,0.68949 1.02867,2.53018 -0.0914,4.51483 -0.450451,0.79816 -0.926701,1.51775 -1.058333,1.59911 -0.131633,0.0813 -0.239332,-0.45443 -0.239332,-1.19062 0,-0.73619 -0.0893,-1.33712 -0.198438,-1.33539 -0.10914,0.002 -0.601249,0.74586 -1.093573,1.65364 -0.907862,1.67397 -1.572125,2.58951 -1.857851,2.56065 -0.08658,-0.009 -0.600644,-0.32034 -1.142349,-0.69244 z m 2.175544,-4.37945 c 0,-0.15486 -0.168119,-0.12914 -0.396875,0.0607 -0.218281,0.18116 -0.396875,0.37059 -0.396875,0.42097 0,0.0504 0.178594,0.0231 0.396875,-0.0607 0.218282,-0.0838 0.396875,-0.2732 0.396875,-0.42097 z m 74.47836,1.61113 c -1.1283,-1.91217 -2.10137,-3.66834 -2.16237,-3.90261 -0.0721,-0.27685 0.20993,-0.59834 0.80569,-0.91849 0.95003,-0.51052 1.63109,-0.38691 1.38609,0.25156 -0.0774,0.20181 -0.0102,0.3386 0.14943,0.30396 0.29128,-0.0632 4.18688,5.79081 4.18375,6.28703 -0.002,0.28075 -1.67681,1.45521 -2.07545,1.45521 -0.12962,0 -1.15883,-1.5645 -2.28714,-3.47666 z m -39.83255,2.58011 c -0.0795,-0.0795 -1.56724,-0.27156 -3.306106,-0.42683 -3.309056,-0.29547 -7.790479,-1.08649 -10.040745,-1.7723 -9.48754,-2.89153 -15.986104,-6.13744 -22.489584,-11.23313 -6.056162,-4.7452 -15.010712,-14.79901 -14.04456,-15.76866 0.108133,-0.10853 2.148724,-0.23506 4.534646,-0.28119 l 4.33804,-0.0839 4.041146,4.07137 c 2.222629,2.23925 4.874583,4.73363 5.893228,5.54306 4.83665,3.84327 10.839924,7.02503 16.801043,8.90462 8.099904,2.55397 13.616832,3.26951 21.123382,2.7397 5.11341,-0.3609 11.06891,-1.50617 13.93391,-2.67955 0.29104,-0.1192 1.24354,-0.49086 2.11666,-0.82592 2.55262,-0.97954 5.35801,-2.3415 8.3221,-4.04019 2.40754,-1.37975 5.15973,-3.16993 5.56853,-3.6221 0.0728,-0.0805 0.9062,-0.75736 1.85208,-1.50417 1.63211,-1.28862 5.64886,-5.27157 6.75983,-6.70292 0.28392,-0.36581 0.85969,-0.93135 1.2795,-1.25678 0.72107,-0.55895 1.01008,-0.59167 5.22552,-0.59167 4.09116,0 4.46224,0.0389 4.46224,0.46792 0,0.93418 -4.93869,7.06166 -8.99584,11.16124 -3.30368,3.33823 -8.75247,7.35701 -13.1322,9.68573 -1.29026,0.68603 -2.46499,1.33656 -2.61051,1.44561 -0.48895,0.36641 -5.80146,2.58601 -7.8052,3.26106 -3.50831,1.18194 -7.3848,2.12729 -12.30313,3.00036 -2.30127,0.4085 -11.23002,0.80257 -11.52398,0.50861 z m -40.532789,-2.20793 c -0.400182,-0.25172 -0.727604,-0.56054 -0.727604,-0.68627 0,-0.44072 1.098068,-1.7655 1.463365,-1.7655 0.442304,0 2.657475,-3.16307 2.552563,-3.64484 -0.04043,-0.18565 0.179755,-0.69321 0.489294,-1.12792 l 0.562798,-0.79037 0.743196,0.5292 c 0.45757,0.32582 0.807251,0.87063 0.909862,1.4176 0.14496,0.7727 -0.02932,1.18664 -1.33818,3.17841 -0.827665,1.2595 -1.657115,2.29 -1.843223,2.29 -0.186111,0 -0.433594,0.16912 -0.549966,0.37581 -0.347368,0.61699 -1.461793,0.72728 -2.262105,0.22388 z m 1.124479,-0.3351 c 0,-0.14552 -0.12609,-0.26459 -0.280199,-0.26459 -0.154109,0 -0.206613,0.11907 -0.116676,0.26459 0.08994,0.14552 0.216027,0.26458 0.280199,0.26458 0.06417,0 0.116676,-0.11906 0.116676,-0.26458 z m 84.25732,0.54077 c -0.2979,-0.12068 -1.29397,-1.36036 -2.21348,-2.75484 -1.45268,-2.20305 -1.65047,-2.64932 -1.50883,-3.40435 0.16499,-0.87947 1.12181,-1.75329 1.47672,-1.34862 0.63103,0.7195 4.7716,6.76669 4.7716,6.9688 0,0.63771 -1.49497,0.95672 -2.52601,0.53901 z m 2.25131,-1.61332 c -0.52898,-0.74288 -0.54138,-0.84548 -0.15392,-1.27362 0.33486,-0.37002 0.35423,-0.53346 0.0943,-0.79589 -0.26036,-0.26286 -0.13813,-0.48745 0.59893,-1.10052 1.16243,-0.9669 1.42004,-0.96908 2.09743,-0.0178 0.75326,1.05786 0.49127,2.19873 -0.7375,3.21159 -0.52323,0.43129 -1.03516,0.78417 -1.13762,0.78417 -0.10245,0 -0.44518,-0.36359 -0.7616,-0.80797 z m -89.154463,-0.001 c 0,-0.15411 -0.103151,-0.21645 -0.229222,-0.13853 -0.343305,0.21217 -1.011799,-0.66343 -1.206151,-1.57984 -0.152127,-0.7173 0.05414,-1.09573 1.838727,-3.37343 1.984042,-2.53227 2.024764,-2.5655 3.143605,-2.5655 0.788704,0 1.27589,0.15731 1.601512,0.51712 0.449557,0.49675 0.443357,0.54826 -0.157432,1.30827 -0.343977,0.43514 -0.753605,0.79775 -0.91028,0.8058 -0.407964,0.021 -2.584784,3.09929 -2.630504,3.7199 -0.06415,0.87079 -1.450255,2.11922 -1.450255,1.30621 z m -5.276496,-3.9289 c -0.905756,-0.75103 -0.90827,-0.75924 -0.447606,-1.46231 0.566753,-0.86497 1.112972,-1.10193 1.602875,-0.69535 0.253304,0.21023 0.424013,0.21956 0.541411,0.0296 0.287531,-0.46524 0.761111,-0.31302 1.666672,0.5357 l 0.864978,0.81069 -0.552267,0.77559 c -0.771557,1.08355 -2.373421,1.0862 -3.676063,0.006 z m 96.146589,-1.73635 c -1.85042,-2.30061 -2.0004,-2.57693 -1.83106,-3.37344 0.201,-0.94546 0.82097,-1.79361 1.31106,-1.79361 0.41096,0 1.50575,1.17875 1.40626,1.5141 -0.10598,0.35718 2.65083,3.51298 3.06882,3.51298 0.18292,0 0.61222,0.29766 0.95399,0.66146 l 0.62141,0.66146 -0.62141,0.66146 c -0.47571,0.50637 -0.88776,0.66145 -1.75749,0.66145 -1.11654,0 -1.17074,-0.0431 -3.15158,-2.50586 z m -3.70314,0.89693 c -0.0972,-0.15732 -0.45318,-0.21665 -0.79103,-0.13185 -0.47894,0.1202 -0.74303,-0.0267 -1.19878,-0.66671 l -0.58452,-0.82088 0.76463,-0.62526 c 0.51748,-0.42316 1.11198,-0.62833 1.83934,-0.63477 0.90545,-0.008 1.17233,0.1225 1.69439,0.82863 l 0.61967,0.83815 -0.83867,0.74935 c -0.9058,0.80934 -1.22958,0.90902 -1.50503,0.46334 z m 8.68887,-0.6878 c -0.25559,-0.39008 -0.46669,-0.85619 -0.46912,-1.0358 -0.002,-0.17962 -0.265,-0.62688 -0.58351,-0.99392 -0.39093,-0.45051 -0.4769,-0.70895 -0.26458,-0.79539 0.18679,-0.0761 0.1452,-0.13653 -0.10239,-0.14893 -0.22929,-0.0115 -0.69058,-0.31221 -1.02507,-0.66826 -0.33449,-0.35605 -0.84932,-0.68347 -1.14405,-0.7276 -0.29474,-0.0441 -0.78504,-0.41516 -1.08955,-0.8245 l -0.55367,-0.74427 0.65941,-0.50662 c 0.37809,-0.29049 1.08816,-0.50913 1.66438,-0.51251 0.88968,-0.005 1.2116,0.19901 2.80602,1.78006 0.99058,0.98226 1.88129,2.11822 1.97935,2.52436 0.0981,0.40613 0.29208,0.6681 0.43115,0.58216 0.46415,-0.28687 -0.0587,1.57201 -0.61459,2.18514 -0.7068,0.77954 -1.12688,0.75129 -1.69378,-0.11392 z m 1.91472,-1.09175 c -0.0815,-0.0815 -0.29496,-1.7e-4 -0.47443,0.18065 -0.25936,0.26131 -0.22897,0.2917 0.14811,0.14812 0.26094,-0.0994 0.40778,-0.24731 0.32632,-0.32877 z m -2.25596,-2.43235 c 0,-0.14552 -0.0525,-0.26458 -0.11668,-0.26458 -0.0642,0 -0.19026,0.11906 -0.2802,0.26458 -0.0899,0.14552 -0.0374,0.26458 0.11668,0.26458 0.15411,0 0.2802,-0.11906 0.2802,-0.26458 z m -102.43751,3.53423 c -0.242347,-0.27034 -0.525692,-0.94975 -0.629653,-1.50981 -0.186348,-1.00389 -0.15776,-1.04971 2.022293,-3.24114 1.948558,-1.95874 2.322039,-2.22186 3.143195,-2.21445 0.512537,0.005 1.157896,0.17949 1.434131,0.38858 0.480031,0.36335 0.448342,0.44198 -0.716452,1.77753 -0.670285,0.76854 -2.027391,2.27338 -3.01579,3.34408 -1.723779,1.86731 -1.815065,1.92668 -2.237724,1.45521 z m 6.393808,-1.855 c -0.595059,-0.50071 -0.793735,-0.85715 -0.69283,-1.243 0.07781,-0.29754 0.01558,-0.69268 -0.138295,-0.87808 -0.204677,-0.24662 -0.112938,-0.54819 0.341802,-1.12361 0.777491,-0.98381 1.016677,-0.99513 1.862936,-0.0882 1.008803,1.08114 1.148337,2.39963 0.350012,3.30729 -0.351975,0.40018 -0.696066,0.7276 -0.76464,0.7276 -0.06858,0 -0.500119,-0.31591 -0.958985,-0.70202 z m 36.42426,-1.06187 c -0.805088,-0.80508 0.941516,-4.47648 4.069812,-8.55486 1.17126,-1.52698 1.26734,-2.59136 0.11942,-1.32292 -0.26339,0.29105 -0.793806,0.52917 -1.178716,0.52917 -0.3849,0 -0.84355,0.14373 -1.01921,0.31939 -0.24947,0.24947 -0.41381,0.22497 -0.75066,-0.11188 -0.34603,-0.34603 -0.53027,-0.36993 -0.932224,-0.12095 -0.62725,0.38855 -1.090605,-0.17992 -0.879279,-1.07875 0.127838,-0.54373 0.04545,-0.59531 -0.950971,-0.59531 -1.021742,0 -1.2612,0.1647 -3.775353,2.59671 -3.066288,2.96611 -5.267405,4.68961 -6.325876,4.95323 -1.480753,0.36879 -2.01917,-1.07017 -0.911629,-2.43641 0.333459,-0.41135 1.002911,-1.81947 1.48767,-3.12915 1.034536,-2.79505 4.463463,-10.06724 4.656026,-9.87468 0.07296,0.073 -0.422423,1.31258 -1.100852,2.75471 -1.650968,3.50945 -3.788375,8.67204 -3.648358,8.81206 0.06196,0.062 0.323025,-0.0777 0.580152,-0.31044 0.538747,-0.48756 6.393276,-3.35996 6.855696,-3.3636 0.471466,-0.004 1.868424,-1.8978 2.635581,-3.57349 0.575146,-1.25629 0.668737,-1.78124 0.576318,-3.23262 -0.09823,-1.54261 -0.201798,-1.81449 -0.943769,-2.47745 -1.590421,-1.42104 -4.190085,-1.27692 -7.656582,0.42445 -2.198772,1.07917 -4.731808,3.44148 -5.48776,5.11788 -0.533765,1.18368 -1.093965,1.52801 -0.669465,0.41149 0.87833,-2.31018 3.156694,-4.48487 6.292486,-6.00616 3.654332,-1.77284 6.952488,-1.67592 8.354174,0.2455 1.104965,1.51469 0.782743,4.51704 -0.759691,7.0785 l -0.874696,1.45258 1.096827,0.08 c 1.060712,0.0774 1.094619,0.10832 1.029677,0.9399 -0.08888,1.1381 0.258474,1.08465 1.289588,-0.19844 0.46778,-0.58208 0.99803,-1.05833 1.17833,-1.05833 0.48358,0 0.13987,1.02521 -0.44944,1.3406 -0.45973,0.24605 -0.70962,1.04065 -0.32727,1.04065 0.0929,0 0.67114,-0.463 1.28505,-1.02888 0.87393,-0.80556 1.267996,-0.99986 1.815526,-0.8952 0.46119,0.0882 0.69932,0.30338 0.69932,0.63201 0,0.63098 0.11516,0.62464 1.03732,-0.0571 0.56243,-0.41583 0.87567,-0.49133 1.24605,-0.30034 0.27212,0.14032 0.64359,0.20176 0.82549,0.13654 0.1819,-0.0652 0.33073,0.0104 0.33073,0.16805 0,0.15764 -0.28475,0.28663 -0.63278,0.28663 -0.4543,0 -0.6796,0.18656 -0.79879,0.66146 -0.18643,0.74282 -0.80371,0.8753 -1.15485,0.24786 -0.2095,-0.37436 -0.26444,-0.37385 -0.57913,0.005 -0.19122,0.2304 -0.6095,1.16066 -0.92953,2.06724 -0.6411,1.81617 -2.558356,5.73351 -3.364246,6.87384 -0.50005,0.70758 -1.00081,0.91052 -1.360116,0.55121 z m 2.944626,-4.53031 c 0.939936,-1.93385 1.651166,-3.57389 1.580496,-3.64456 -0.1776,-0.1776 -2.628406,3.41851 -3.476626,5.10132 -0.38265,0.75915 -0.69572,1.69646 -0.69572,2.08292 0,1.25995 0.77039,0.20783 2.59185,-3.53968 z m -13.307475,-0.034 c 1.523812,-0.88349 6.423668,-5.37707 6.012628,-5.51409 -0.413377,-0.13779 -3.675992,1.40589 -5.549607,2.62575 -1.422006,0.92583 -1.657945,1.19274 -1.684337,1.90546 -0.01688,0.45585 -0.08514,0.62046 -0.151694,0.3658 -0.168124,-0.64335 -0.585541,-0.57836 -0.849707,0.13229 -0.530767,1.42786 0.288105,1.60646 2.222717,0.48479 z m 17.594791,-5.74154 c 0,-0.21828 -0.11906,-0.32329 -0.26459,-0.23335 -0.14552,0.0899 -0.26458,0.34211 -0.26458,0.56039 0,0.21828 0.11906,0.32329 0.26458,0.23336 0.14553,-0.0899 0.26459,-0.34212 0.26459,-0.5604 z m -2.91042,-0.37495 c 0,-0.43301 -0.38463,-0.28289 -0.742196,0.28967 -0.31432,0.5033 -0.29896,0.52281 0.20093,0.25528 0.297696,-0.15933 0.541266,-0.40455 0.541266,-0.54495 z m 13.46043,9.86503 c -0.51946,-1.32705 -0.52506,-2.54981 -0.0255,-5.55625 0.27206,-1.63711 0.42634,-2.97151 0.34286,-2.96535 -0.0835,0.006 -0.77355,0.15654 -1.53348,0.33418 -1.32825,0.31047 -1.43387,0.40323 -2.73049,2.39821 -0.74184,1.14139 -1.47864,2.36023 -1.63734,2.70854 -0.33151,0.72758 -0.83865,0.86504 -0.62814,0.17026 0.75631,-2.49616 0.88919,-4.76849 0.29225,-4.99755 -0.87334,-0.33513 -0.30724,-0.51193 1.30952,-0.40898 l 1.70641,0.10866 1.49508,-2.31757 c 1.8616,-2.88571 4.44054,-7.6097 4.85865,-8.89986 0.32261,-0.99542 1.08138,-1.90563 1.08138,-1.29719 0,0.17056 -0.19727,0.69116 -0.43837,1.15688 -0.50327,0.97213 -3.05515,10.00914 -2.87676,10.18753 0.065,0.065 0.61422,-0.0803 1.22051,-0.3229 1.26403,-0.50576 1.46807,-0.43196 1.03628,0.37483 -0.48463,0.90555 -0.1089,0.91962 0.55563,0.0208 0.75964,-1.02746 1.03187,-1.02966 1.03187,-0.008 v 0.80622 l 1.05824,-0.85042 c 0.58202,-0.46773 1.13662,-0.77203 1.23242,-0.67622 0.0958,0.0958 0.33622,0.0397 0.53424,-0.12461 0.27397,-0.22737 0.48008,-0.19016 0.86222,0.15568 0.53975,0.48846 1.18031,0.31624 1.85715,-0.49929 0.46645,-0.56205 0.80574,-0.51635 0.80574,0.10853 0,0.28593 -0.23813,0.6473 -0.52917,0.80306 -0.51151,0.27375 -0.74746,1.05834 -0.31828,1.05834 0.11599,0 0.67593,-0.47625 1.24432,-1.05834 0.56839,-0.58208 1.21763,-1.05454 1.44276,-1.04992 0.34368,0.007 0.33507,0.0648 -0.0537,0.3599 -0.51067,0.38766 -0.62072,0.95461 -0.1853,0.95461 0.15275,0 0.629,-0.18166 1.05834,-0.40367 0.42933,-0.22202 0.78061,-0.30863 0.78061,-0.19246 0,0.11616 -0.41142,0.43277 -0.91427,0.70357 -0.50285,0.2708 -0.90546,0.56577 -0.89471,0.65548 0.0682,0.56886 -0.10927,0.82458 -0.57227,0.82458 -0.54777,0 -0.73015,-0.63831 -0.26458,-0.92604 0.14552,-0.0899 0.26458,-0.28162 0.26458,-0.42596 0,-0.14433 -0.417,0.0556 -0.92667,0.44437 -0.77363,0.59008 -0.99409,0.65085 -1.33496,0.36795 -0.22456,-0.18636 -0.34707,-0.49837 -0.27226,-0.69333 0.0949,-0.2472 -0.10169,-0.35449 -0.64941,-0.35449 -0.432,0 -0.78545,-0.11906 -0.78545,-0.26458 0,-0.56704 -0.57302,-0.22052 -1.09316,0.66106 -0.52446,0.8889 -1.22671,1.04384 -0.90257,0.19915 0.10204,-0.2659 -0.14642,-0.17545 -0.70956,0.25831 -0.67559,0.52037 -1.16853,1.40726 -2.23653,4.02392 -1.30647,3.20092 -2.45732,5.17631 -3.0157,5.17631 -0.14171,0 -0.38583,-0.32742 -0.54247,-0.72761 z m 2.09552,-2.38125 c 0.60039,-1.2733 1.21614,-2.67229 1.36834,-3.10885 0.26215,-0.75197 0.25469,-0.7659 -0.14165,-0.26458 -0.91935,1.16285 -2.49434,4.0309 -2.65517,4.83506 -0.3079,1.53948 0.31292,0.90425 1.42848,-1.46163 z m 1.03298,-3.83073 c 0.57791,-0.76713 1.13658,-1.75197 1.2415,-2.18854 0.18941,-0.78817 0.18775,-0.78956 -0.23589,-0.19843 -0.23464,0.32742 -0.67188,0.59531 -0.97164,0.59531 -0.44197,0 -0.52054,-0.12796 -0.41562,-0.67681 0.0987,-0.51634 0.0375,-0.64154 -0.25832,-0.52804 -0.21324,0.0818 -0.64786,0.21407 -0.96584,0.29387 -0.5009,0.12572 -0.63966,0.48785 -1.03876,2.71085 -0.25335,1.41117 -0.45524,3.16107 -0.44866,3.88867 l 0.012,1.32292 1.01526,-1.91251 c 0.55839,-1.05187 1.48809,-2.54015 2.066,-3.30729 z m -6.27018,-1.61197 c 0,-0.0338 -0.44648,-0.018 -0.99219,0.035 l -0.99218,0.0963 -0.0748,1.48827 -0.0748,1.48827 1.06701,-1.52322 c 0.58686,-0.83776 1.06701,-1.55083 1.06701,-1.5846 z m 2.70458,-0.98531 c 0.86064,-0.23902 1.0205,-0.41395 1.26809,-1.38759 0.15582,-0.61275 0.5233,-1.94752 0.81663,-2.96617 0.29333,-1.01864 0.599,-2.09021 0.67926,-2.38125 0.0803,-0.29104 -0.6544,0.78052 -1.63258,2.38125 -0.97818,1.60073 -2.01507,3.29737 -2.30421,3.77032 -0.59048,0.96584 -0.45205,1.0347 1.17281,0.58344 z m -17.247282,-2.81679 c -0.0052,-0.31883 0.117607,-0.65818 0.272806,-0.7541 0.45635,-0.28204 0.49399,-0.0348 0.10242,0.67274 -0.352816,0.63751 -0.366185,0.64041 -0.375226,0.0814 z M 15.725663,97.365384 12.028584,93.661214 h 29.857228 29.857225 l 1.690426,1.65365 1.690425,1.65364 -0.690644,2.05052 -0.690647,2.050516 H 46.582669 19.422742 Z m 120.924837,2.33323 c -0.22392,-0.75402 -0.40713,-1.4684 -0.40713,-1.5875 0,-0.11912 1.06742,-0.21657 2.37204,-0.21657 2.27252,0 2.41103,-0.0342 3.3011,-0.81571 0.74486,-0.654 0.96326,-1.07364 1.10162,-2.11667 l 0.17258,-1.30095 h 27.61487 c 15.18818,0 27.61488,0.0877 27.61488,0.19489 0,0.10719 -1.57593,1.77407 -3.50206,3.70417 l -3.50205,3.509266 h -27.17936 -27.17937 z m -63.579593,-6.66284 -3.767117,-3.80045 v -4.26255 -4.26255 l 0.727605,-0.36589 c 0.400182,-0.20123 1.14233,-0.44499 1.649219,-0.54169 0.506889,-0.0967 1.637982,-0.52262 2.513542,-0.94651 0.875559,-0.42389 2.207842,-0.96362 2.960626,-1.1994 0.752785,-0.23578 1.511343,-0.60056 1.685682,-0.81063 0.266944,-0.32164 0.134408,-0.31717 -0.839531,0.0284 -1.232598,0.4373 -8.026413,2.23466 -8.446765,2.23466 -0.143539,0 -0.250378,-1.35481 -0.250378,-3.175 0,-2.09221 0.09721,-3.175 0.285044,-3.175 0.352023,0 3.957405,-2.46033 3.81462,-2.60312 -0.0567,-0.0567 -0.888958,0.44628 -1.849467,1.11772 -0.960512,0.67145 -1.85974,1.22081 -1.99829,1.22081 -0.155627,0 -0.251907,-4.39991 -0.251907,-11.51199 v -11.51242 l 3.274124,-3.23853 c 4.801566,-4.74937 4.173456,-4.36809 5.274083,-3.20149 0.729429,0.77316 0.925057,0.87804 0.889754,0.47701 -0.03385,-0.38452 0.148762,-0.53617 0.724723,-0.60186 0.423486,-0.0483 1.047644,-0.26974 1.38702,-0.49211 0.377327,-0.24724 0.797718,-0.32529 1.082108,-0.20092 0.255786,0.11187 0.554361,0.18449 0.663501,0.16139 0.109141,-0.0231 0.198438,7.63294 0.198438,17.01342 v 17.05543 l -1.124479,0.28784 c -1.671752,0.42794 -1.978488,0.5654 -1.5875,0.71145 0.399073,0.14906 0.449572,0.9569 0.05152,0.82421 -0.153562,-0.0512 -0.810242,0.40146 -1.459286,1.00588 -1.605372,1.49499 -2.612943,1.90351 -3.257079,1.32057 -0.530421,-0.48002 -1.166603,-0.3525 -1.971852,0.39527 -0.466064,0.43279 -0.453316,0.45749 0.324273,0.62827 0.445172,0.0978 0.931373,0.1024 1.080445,0.0103 0.149071,-0.0921 0.271039,-0.0531 0.271039,0.0868 0,0.2265 -1.357704,0.83524 -1.862884,0.83524 -0.108029,0 -0.270068,-0.29345 -0.36009,-0.65212 -0.107564,-0.42857 -0.295322,-0.6016 -0.547716,-0.50474 -0.315953,0.12124 -0.284647,0.28181 0.176567,0.90564 0.489257,0.66175 0.513225,0.8157 0.188306,1.20952 -0.337881,0.40952 -0.321349,0.42411 0.17875,0.15773 0.487857,-0.25986 0.745786,-0.0957 2.248958,1.43184 0.933845,0.94895 2.055088,1.97707 2.491651,2.28471 0.436562,0.30764 -0.264219,-0.54741 -1.55729,-1.90012 l -2.351038,-2.45948 0.835414,-0.4046 c 0.757624,-0.36693 0.879933,-0.36431 1.31354,0.0281 0.769136,0.69606 0.985139,0.49718 0.284139,-0.26162 -0.622639,-0.67398 -0.624631,-0.68917 -0.06805,-0.5183 0.481766,0.1479 0.55082,0.0897 0.432162,-0.36401 -0.08282,-0.31671 -0.01304,-0.54004 0.168738,-0.54004 0.170477,0 1.028923,-0.50601 1.907651,-1.12448 2.595817,-1.82697 3.757907,-2.57968 3.982686,-2.57968 0.364929,0 0.260871,18.89471 -0.106079,19.26166 -0.382844,0.38285 -2.328334,0.42706 -2.328334,0.0529 0,-0.14552 0.386954,-0.27364 0.859896,-0.28471 l 0.859896,-0.0201 -0.926042,-0.34191 c -0.509323,-0.18805 -1.01615,-0.29053 -1.126283,-0.22773 -0.110136,0.0628 -0.586386,-0.15077 -1.058334,-0.47462 -0.822116,-0.56413 -0.814242,-0.54265 0.187794,0.51243 l 1.045884,1.10126 h -1.578247 -1.578248 z m 4.765696,2.83146 c -0.181901,-0.0734 -0.479557,-0.0734 -0.661458,0 -0.181901,0.0734 -0.03307,0.13346 0.330729,0.13346 0.363802,0 0.51263,-0.0601 0.330729,-0.13346 z m -2.610744,-4.98979 c -0.98347,-1.09451 -2.628969,-2.72661 -3.656661,-3.62689 l -1.868533,-1.63687 1.562677,1.70866 c 1.429081,1.56258 5.465083,5.50385 5.665859,5.53287 0.04663,0.007 -0.71987,-0.88326 -1.703342,-1.97777 z m 1.874287,-1.25113 c -2.735622,-2.95134 -5.091832,-5.3171 -5.811981,-5.83555 l -0.79375,-0.57142 0.860359,1.0924 c 0.90981,1.1552 6.345439,6.43905 6.624011,6.43905 0.09001,0 -0.30538,-0.50601 -0.878639,-1.12448 z m -5.833621,-19.14485 c 0.516914,-0.19836 0.551212,-0.63315 0.04995,-0.63315 -0.202713,0 -0.437099,0.17859 -0.520864,0.39687 -0.170257,0.44369 -0.126629,0.46558 0.470916,0.23628 z m 10.323338,-11.08419 c -0.369736,-0.88491 -0.362569,-0.92604 0.161409,-0.92604 0.325581,0 0.47652,-0.1162 0.37156,-0.28603 -0.101158,-0.16367 -0.469373,-0.21258 -0.860827,-0.11433 -0.524134,0.13155 -0.80051,0.0283 -1.182182,-0.44158 -0.273968,-0.3373 -0.39964,-0.43468 -0.279265,-0.2164 0.283046,0.51327 2.019593,2.91042 2.108372,2.91042 0.03732,0 -0.106257,-0.41672 -0.319067,-0.92604 z m -1.818746,-1.11131 c -0.122893,-0.32025 -0.243109,-0.3552 -0.463536,-0.13477 -0.22043,0.22043 -0.203534,0.41097 0.06515,0.73471 0.410374,0.49447 0.668936,0.1051 0.398388,-0.59994 z m -0.148576,-1.50213 c 0,-0.0549 -0.20836,-0.2633 -0.463021,-0.46302 -0.419645,-0.32911 -0.429004,-0.31975 -0.0999,0.0999 0.345644,0.44073 0.562917,0.58089 0.562917,0.36313 z m -0.94946,-1.28917 c -0.10282,-0.1819 -0.496798,-0.7425 -0.875512,-1.24579 -0.378714,-0.50329 -0.926695,-1.28787 -1.217737,-1.74351 -1.679485,-2.62935 -2.148287,-3.28452 -2.434246,-3.40198 -0.376036,-0.15447 1.494052,2.7293 3.285186,5.06592 1.205675,1.57286 1.65036,2.04728 1.242309,1.32536 z m 3.33071,-5.87136 c 0,-0.50071 -0.450826,-0.76375 -0.96851,-0.5651 -0.334608,0.1284 -0.351335,0.23438 -0.08722,0.55261 0.41683,0.50225 1.055735,0.50981 1.055735,0.0125 z m -10.390408,-0.30776 c -0.08792,-0.0879 -0.316124,-0.0973 -0.507119,-0.0209 -0.211066,0.0845 -0.148373,0.14716 0.159854,0.15985 0.278913,0.0115 0.435184,-0.051 0.347265,-0.13896 z m 10.919574,-2.63389 c 0,-0.22687 -0.119062,-0.3389 -0.264583,-0.24897 -0.145521,0.0899 -0.264583,0.27556 -0.264583,0.41249 0,0.13694 0.119062,0.24897 0.264583,0.24897 0.145521,0 0.264583,-0.18562 0.264583,-0.41249 z m 2.125975,49.64239 c -0.15064,-0.28148 -0.273891,-1.28478 -0.273891,-2.22956 0,-1.4135 0.08202,-1.73922 0.463021,-1.83878 0.440973,-0.11524 0.440973,-0.12247 0,-0.1517 -0.419524,-0.0278 -0.463021,-0.41211 -0.463021,-4.09072 0,-5.02245 -0.05726,-4.9358 3.261979,-4.9358 h 2.294271 v -3.03661 c 0,-2.86083 0.03446,-3.05846 0.595313,-3.41412 0.839134,-0.53213 11.822856,-0.56035 12.545996,-0.0322 0.4389,0.32054 0.49243,0.88638 0.56618,5.98534 0.0448,3.09724 0.009,5.91993 -0.0795,6.27265 -0.1528,0.60882 -3.409,4.01455 -3.838276,4.01455 -0.11164,0 -0.25851,0.21235 -0.32638,0.4719 -0.0679,0.25954 -0.89863,1.15251 -1.84614,1.98437 l -1.722732,1.51248 h -5.451454 c -5.118902,0 -5.46816,-0.0312 -5.725346,-0.51177 z m 1.192197,-5.59125 c 0.263715,-0.4267 -0.08109,-0.62788 -0.49185,-0.28698 -0.198808,0.165 -0.458899,0.21173 -0.57798,0.10385 -0.119083,-0.10788 -0.130868,-0.0473 -0.02619,0.13459 0.232891,0.40469 0.858771,0.43241 1.096018,0.0485 z m 22.610991,5.30927 c -0.51045,-0.51045 -0.52872,-0.87305 -0.5165,-10.2526 l 0.0127,-9.72344 2.4817,2.60148 c 1.36494,1.43082 2.74639,2.97863 3.0699,3.43959 0.51191,0.72939 1.90359,2.04682 6.00311,5.68284 0.63387,0.5622 0.86919,0.92551 0.65693,1.01423 -0.1819,0.076 -0.33073,0.26197 -0.33073,0.41318 0,0.16966 0.14752,0.1525 0.38529,-0.0448 0.2119,-0.17586 0.50956,-0.24295 0.66145,-0.14907 0.32109,0.19844 0.37979,2.5207 0.0637,2.5207 -0.20404,0 -3.63924,-3.47972 -5.64721,-5.72039 -0.53069,-0.59219 -1.00694,-1.29371 -1.05833,-1.55894 -0.0521,-0.26869 -0.34381,-0.50063 -0.65883,-0.52378 -0.31096,-0.0229 -1.18291,-0.62798 -1.93768,-1.34474 -0.75476,-0.71675 -1.50461,-1.35021 -1.66632,-1.40768 -0.46968,-0.16692 3.92256,4.70305 5.29954,5.87595 0.6881,0.58612 2.29716,2.08716 3.5757,3.33565 l 2.32461,2.26998 -0.0546,1.56639 c -0.0814,2.3379 -0.37646,2.53465 -3.80093,2.53465 -2.56147,0 -2.77812,-0.0395 -2.77812,-0.50712 0,-0.27892 0.14883,-0.56717 0.33073,-0.64057 0.26458,-0.10676 0.26458,-0.13763 0,-0.15434 -0.1819,-0.0115 -0.33255,-0.22925 -0.33478,-0.48391 -0.003,-0.3957 -0.0414,-0.40532 -0.26054,-0.0661 -0.14106,0.21828 -0.2583,0.7243 -0.26053,1.12448 l -0.004,0.72761 h -2.51354 c -2.16077,0 -2.58781,-0.0743 -3.04271,-0.52917 z m 5.9369,-4.17854 c -0.1101,-0.39394 -0.18897,-0.95438 -0.17528,-1.24542 0.0228,-0.48491 0.0131,-0.48751 -0.1164,-0.031 -0.11612,0.40938 -0.61686,0.0322 -2.81024,-2.11667 l -2.66894,-2.6148 2.42725,2.67687 c 1.33499,1.47228 2.60732,2.82631 2.8274,3.00896 0.22008,0.18265 0.40955,0.64493 0.42103,1.0273 0.0115,0.38236 0.0827,0.54127 0.15813,0.35312 0.0755,-0.18814 0.0472,-0.66439 -0.063,-1.05833 z m -2.23273,0.65857 c 0,-0.0442 -0.44649,-0.4907 -0.99219,-0.99219 l -0.99219,-0.9118 0.9118,0.99219 c 0.84868,0.92351 1.07258,1.11384 1.07258,0.9118 z m 5.02708,-2.0802 c 0,-0.1525 -0.17572,-0.20985 -0.39049,-0.12743 -0.2554,0.098 -0.87329,-0.42059 -1.78594,-1.49891 -1.30151,-1.53777 -4.10671,-4.14777 -5.72087,-5.3228 -0.95985,-0.69871 3.94752,4.3849 5.89483,6.10653 1.46171,1.29232 2.00247,1.51986 2.00247,0.84261 z m 12.10469,5.94695 c -0.52552,-0.13733 -0.61501,-0.5166 -0.15786,-0.66899 0.21285,-0.0709 0.17703,-0.29772 -0.1184,-0.74965 -0.36514,-0.55857 -0.42484,-1.7974 -0.43286,-8.98231 -0.005,-4.5839 -0.0114,-8.72133 -0.0139,-9.19427 -0.004,-0.76246 -0.0878,-0.85989 -0.73882,-0.85989 -0.56067,0 -1.19017,-0.45901 -2.66312,-1.94186 -1.83445,-1.84678 -1.92481,-1.99476 -1.84546,-3.02221 l 0.0834,-1.08035 3.57188,3.40767 c 1.96453,1.87423 3.41312,3.41281 3.2191,3.41908 -0.19403,0.006 -0.30074,0.16024 -0.23714,0.34215 0.0636,0.1819 0.32049,0.29371 0.57084,0.24847 0.25037,-0.0452 0.65473,0.0738 0.8986,0.26459 0.24386,0.19076 -1.48245,-1.67723 -3.83626,-4.15109 -4.11414,-4.32396 -4.25739,-4.51113 -3.70417,-4.83968 l 0.57549,-0.34176 -0.57469,0.15461 c -0.56003,0.15067 -0.57481,0.0907 -0.57982,-2.35067 -0.004,-1.97069 0.0846,-2.58003 0.41537,-2.85556 0.24271,-0.20217 1.38285,-0.4062 2.69649,-0.48256 l 2.27598,-0.13229 -0.0925,-1.5875 -0.0925,-1.5875 0.73519,0.66146 c 0.40436,0.3638 2.61888,2.51349 4.92116,4.77709 3.47303,3.41467 4.18597,4.24473 4.18597,4.87361 0,0.57308 0.41568,1.18855 1.70408,2.5231 l 1.70408,1.76512 -0.0108,10.78413 c -0.0102,10.23383 -0.0365,10.80978 -0.51346,11.28679 -0.46366,0.46366 -0.92857,0.50028 -5.99276,0.47197 -3.01956,-0.0169 -5.69846,-0.0851 -5.95313,-0.1517 z m 0.59531,-5.65406 c 0,-0.13693 -0.11906,-0.24897 -0.26458,-0.24897 -0.14552,0 -0.26458,0.18562 -0.26458,0.41249 0,0.22687 0.11906,0.33891 0.26458,0.24897 0.14552,-0.0899 0.26458,-0.27556 0.26458,-0.41249 z m 10.11769,-0.51355 c 0.73511,-0.70637 0.95763,-1.05834 0.66907,-1.05834 -0.23779,0 -0.50793,0.23813 -0.6003,0.52917 -0.0924,0.29104 -0.24922,0.53182 -0.34856,0.53505 -0.35384,0.0115 -1.4972,1.04079 -1.16257,1.04657 0.18752,0.003 0.83659,-0.47037 1.44236,-1.05245 z m -2.90259,-0.81233 c -0.0936,-0.74812 -0.30785,-1.04678 -1.03013,-1.43576 -0.5016,-0.27013 -1.41057,-1.03568 -2.01994,-1.70122 -0.60937,-0.66553 -1.40884,-1.43736 -1.77659,-1.71517 -0.36776,-0.27781 0.34338,0.52873 1.58031,1.7923 2.08921,2.13421 2.19258,2.29009 1.45521,2.19444 -0.43656,-0.0566 -0.59259,-0.0521 -0.34673,0.01 0.25033,0.0632 0.48317,0.42587 0.52917,0.8242 0.0687,0.59453 0.20159,0.70312 0.80975,0.66149 0.40018,-0.0274 0.7276,0.0817 0.7276,0.24253 0,0.16079 0.0426,0.24274 0.0947,0.18211 0.0521,-0.0606 0.0416,-0.53533 -0.0234,-1.05486 z m -3.51093,-0.60187 c 0,-0.0502 -0.25859,-0.3181 -0.57465,-0.59532 -0.31606,-0.27721 -0.48762,-0.3552 -0.38126,-0.1733 0.12991,0.22217 -0.007,0.34217 -0.41754,0.36556 -0.42659,0.0243 -0.33152,0.0936 0.31512,0.22976 0.50932,0.1072 0.9558,0.21059 0.99218,0.22975 0.0364,0.0192 0.0661,-0.006 0.0661,-0.0565 z m 2.80836,-3.3176 c -0.77474,-0.78658 -1.14274,-1.33556 -0.94045,-1.40299 0.22704,-0.0757 0.27142,-0.35349 0.14007,-0.8768 -0.13985,-0.55722 -0.25275,-0.66814 -0.41418,-0.40694 -0.12206,0.19749 -0.16067,0.51871 -0.0858,0.7138 0.18727,0.48802 -0.16767,0.44435 -0.8257,-0.10157 -0.3025,-0.25097 -0.10352,0.0219 0.44219,0.60646 0.5457,0.58453 0.99219,1.21361 0.99219,1.39796 0,0.18436 0.10175,0.2723 0.22612,0.19544 0.12437,-0.0769 0.50231,0.15423 0.83987,0.51355 0.33756,0.35932 0.67781,0.6533 0.75612,0.6533 0.0783,0 -0.43038,-0.58149 -1.13042,-1.29221 z m -0.6119,-3.80102 c -0.29788,-0.32742 -0.60689,-0.7739 -0.68669,-0.99218 -0.0805,-0.22031 -0.15437,-0.0662 -0.16597,0.34634 -0.0115,0.40877 0.0847,0.67797 0.21372,0.59823 0.12903,-0.0797 0.38173,0.0323 0.56156,0.24896 0.17983,0.21668 0.39267,0.39397 0.47298,0.39397 0.0803,0 -0.0977,-0.26789 -0.3956,-0.59532 z m -4.31313,-7.42836 c 0,-0.0474 -0.32742,-0.37481 -0.7276,-0.7276 l -0.72761,-0.64143 0.64144,0.7276 c 0.59951,0.68006 0.81377,0.84894 0.81377,0.64143 z m 2.07877,-1.53035 c -0.63592,-0.40294 -1.18197,-0.27972 -0.6109,0.13785 0.28087,0.20538 0.61399,0.30956 0.74027,0.23152 0.12629,-0.078 0.0681,-0.24426 -0.12937,-0.36937 z m -5.80374,-2.28608 c -2.06294,-2.16852 -4.21253,-4.17462 -4.21253,-3.93133 0,0.19739 5.58651,5.71727 5.78628,5.71727 0.0689,0 -0.63931,-0.80367 -1.57375,-1.78594 z m 1.7406,-1.65364 c 0.0899,-0.14552 0.0374,-0.26459 -0.11668,-0.26459 -0.15411,0 -0.2802,0.11907 -0.2802,0.26459 0,0.14552 0.0525,0.26458 0.11668,0.26458 0.0642,0 0.19026,-0.11906 0.2802,-0.26458 z m -1.05834,-0.79375 c -0.0899,-0.14552 0.0221,-0.26459 0.24897,-0.26459 0.22687,0 0.41249,-0.11203 0.41249,-0.24896 0,-0.44424 -0.54234,-0.59865 -0.94089,-0.26788 -0.29502,0.24485 -0.31628,0.40955 -0.0883,0.68424 0.34742,0.41861 0.60914,0.48778 0.36774,0.0972 z m -1.5875,-3.96875 c 0.0899,-0.14552 -0.0291,-0.26459 -0.26458,-0.26459 -0.23546,0 -0.35452,0.11907 -0.26458,0.26459 0.0899,0.14552 0.209,0.26458 0.26458,0.26458 0.0556,0 0.17465,-0.11906 0.26458,-0.26458 z m -9.37325,20.79142 c -2.45086,-2.72384 -3.19446,-3.71994 -3.19446,-4.27922 0,-0.68882 0.11294,-0.62047 2.05053,1.24099 1.12778,1.08347 2.67559,2.52129 3.43958,3.19515 1.25032,1.10283 1.38906,1.33348 1.38906,2.30926 0,0.59624 -0.1103,1.08406 -0.24512,1.08406 -0.13482,0 -1.68263,-1.59761 -3.43959,-3.55024 z m 0.15678,-2.93535 c -2.09196,-2.21175 -3.21438,-3.61209 -3.3821,-4.21955 -0.22253,-0.80592 -0.33828,-0.89815 -1.01907,-0.81199 -0.6704,0.0848 -1.05603,-0.20157 -3.03404,-2.25345 -1.97425,-2.04796 -2.26603,-2.47106 -2.26603,-3.28586 0,-0.51437 0.0832,-0.93522 0.18482,-0.93522 0.10165,0 1.30503,1.16086 2.67418,2.57968 1.36915,1.41883 3.16122,3.27303 3.98237,4.12044 0.82116,0.84741 2.59434,2.50168 3.94041,3.67614 2.38541,2.08132 2.44739,2.16459 2.44739,3.2879 0,0.63388 -0.0893,1.15245 -0.19844,1.15239 -0.10914,-6e-5 -1.60741,-1.48977 -3.32949,-3.31048 z M -1.4061084,80.576094 c -2.0009116,-1.95249 -3.6380305,-3.58741 -3.6380424,-3.63315 -5.79e-5,-0.22641 72.0679608,0.0847 72.4944448,0.31295 0.558287,0.29878 0.703644,1.48294 0.576577,4.69711 l -0.08629,2.18281 -32.854335,-0.005 -32.8543324,-0.005 z m 144.4826484,1.37691 c -0.14277,-3.61149 0.004,-4.67662 0.66694,-4.83686 0.82898,-0.2004 72.13948,-0.28775 72.13948,-0.0884 0,0.0924 -1.6291,1.72951 -3.62022,3.63802 l -3.62022,3.47001 h -32.73985 -32.73984 z m -25.81702,-3.35893 c -3.16938,-3.31455 -3.50573,-3.75768 -3.50573,-4.61854 0,-0.52372 0.0943,-0.95222 0.20949,-0.95222 0.11523,0 0.7403,0.54566 1.38906,1.21257 0.64877,0.66692 1.89395,1.82517 2.76707,2.57388 0.87313,0.74872 -1.06164,-1.34817 -4.29948,-4.65974 l -5.88698,-6.02106 v -4.42084 -4.42084 l 2.71198,2.72106 2.71198,2.72106 0.0576,3.47241 c 0.0412,2.48119 0.15445,3.53502 0.39688,3.69175 0.27027,0.17473 0.26105,0.26964 -0.0454,0.46671 -0.33641,0.21636 -0.33644,0.33745 -1.8e-4,0.96574 l 0.38445,0.71837 0.16486,-1.01425 c 0.10469,-0.64401 0.0229,-1.35394 -0.22396,-1.94482 -0.34684,-0.83012 -0.3432,-1.00781 0.0338,-1.64597 0.52922,-0.8959 0.53797,-1.45889 0.0257,-1.65546 -0.46231,-0.17741 -0.53202,-1.11248 -0.10271,-1.37781 0.16179,-0.1 0.38346,-0.0373 0.4926,0.13927 0.10914,0.1766 0.30419,0.3072 0.43344,0.29023 0.12925,-0.017 1.57253,1.22984 3.20729,2.7707 l 2.97229,2.80156 -0.0304,2.23378 c -0.0259,1.89745 -0.0969,2.23378 -0.47199,2.23378 -0.24284,0 -0.55464,-0.10568 -0.69288,-0.23484 -0.13825,-0.12917 -0.53416,-0.32052 -0.8798,-0.42522 -1.00131,-0.30333 -0.44381,0.26848 0.85868,0.88072 l 1.16302,0.54668 0.0277,3.3205 c 0.0153,1.82627 -0.0601,3.31525 -0.16746,3.30883 -0.10736,-0.006 -1.77278,-1.66151 -3.70093,-3.67799 z m -5.09323,-10.86243 c 0,-0.14552 -0.0525,-0.26458 -0.11668,-0.26458 -0.0642,0 -0.19026,0.11906 -0.2802,0.26458 -0.0899,0.14552 -0.0374,0.26459 0.11668,0.26459 0.15411,0 0.2802,-0.11907 0.2802,-0.26459 z m -0.79375,-1.13872 c 0,-0.0442 -0.44649,-0.4907 -0.99219,-0.99219 l -0.99219,-0.9118 0.9118,0.99219 c 0.84868,0.92351 1.07258,1.11384 1.07258,0.9118 z m 1.32291,-1.6394 c 0,-0.21828 -0.11532,-0.39688 -0.25628,-0.39688 -0.14095,0 -0.18774,0.1786 -0.10398,0.39688 0.0838,0.21828 0.19909,0.39687 0.25628,0.39687 0.0572,0 0.10398,-0.17859 0.10398,-0.39687 z m -1.46715,13.88199 c -3.12286,-2.76082 -3.29669,-2.99551 -3.287,-4.43789 l 0.008,-1.24202 3.0046,3.07262 c 2.60162,2.66051 2.98672,3.1662 2.87123,3.77031 -0.0734,0.38373 -0.21416,0.6977 -0.31291,0.6977 -0.0988,0 -1.12666,-0.83733 -2.28426,-1.86072 z m 12.46626,-3.31756 c -0.25861,-0.25861 -0.41577,-0.88026 -0.41577,-1.64461 v -1.22883 l 1.45521,1.43713 c 0.80036,0.79042 1.45521,1.5305 1.45521,1.64461 0,0.38727 -2.0721,0.21425 -2.49465,-0.2083 z m -13.18688,-3.75614 c -2.48614,-2.4955 -2.57473,-2.62507 -2.57473,-3.76559 v -1.18117 l 2.77139,2.76196 c 1.52426,1.51907 2.66163,2.82977 2.5275,2.91267 -0.14844,0.0917 -0.14738,0.30329 0.003,0.54061 0.29941,0.47346 0.33224,1.31594 0.0513,1.31594 -0.11187,0 -1.36203,-1.16299 -2.77812,-2.58442 z m 7.10325,-5.39909 c -2.79042,-2.91323 -3.06955,-3.2924 -2.92114,-3.96807 0.16235,-0.73922 0.19715,-0.71588 3.3182,2.2254 2.9437,2.77414 3.15413,3.03888 3.15413,3.96806 0,0.54759 -0.10484,0.99562 -0.23299,0.99562 -0.12814,0 -1.62133,-1.44946 -3.3182,-3.22101 z m 15.77946,-2.98884 c -4.51191,-4.57969 -4.81993,-4.95532 -4.81993,-5.87788 v -0.98554 l 3.77031,3.70485 c 2.07367,2.03767 4.54422,4.37775 5.4901,5.20018 l 1.71979,1.49534 -0.67017,0.67769 -0.67018,0.67769 z m -152.392762,0.0534 c -1.928961,-1.92548 -3.506539,-3.59016 -3.50573,-3.6993 0.0026,-0.35113 65.306372,-0.2422 65.966264,0.11004 0.515205,0.275 8.933667,6.33363 9.560524,6.88055 0.138244,0.12062 -15.220819,0.21711 -34.131252,0.21444 l -34.382605,-0.005 z m 177.236622,3.02069 c 1.64748,-1.27909 8.69974,-6.37008 9.18064,-6.62746 0.38698,-0.2071 10.0237,-0.29097 33.43202,-0.29097 h 32.88834 l -3.69708,3.70417 -3.69708,3.70416 h -34.36891 c -33.5015,0 -34.353,-0.0124 -33.73793,-0.4899 z m -20.48385,-1.8252 c -2.07253,-2.47997 -7.75557,-8.24018 -11.6345,-11.79248 -2.83508,-2.59635 -2.83711,-2.59909 -2.83365,-3.83646 l 0.003,-1.23825 2.44393,2.54908 c 6.64952,6.93559 9.3232,9.87061 9.32423,10.23562 5.3e-4,0.23373 0.26687,0.42035 0.63867,0.44775 0.35064,0.0258 1.01756,0.45238 1.48204,0.94788 0.46448,0.49551 1.02802,1.01998 1.25231,1.1655 0.22429,0.14553 0.80702,0.56018 1.29495,0.92146 l 0.88715,0.65688 -0.88052,-1.11787 c -1.97201,-2.50357 -5.42786,-6.19202 -8.12791,-8.67498 -1.57501,-1.44837 -4.09173,-3.81687 -5.59272,-5.26333 -2.52468,-2.43298 -2.72906,-2.70543 -2.72906,-3.63803 0,-0.55444 0.10796,-1.00808 0.23991,-1.00808 0.13195,0 1.88728,1.75617 3.90073,3.9026 7.7465,8.25815 10.22648,10.65633 13.5842,13.13616 1.54351,1.13995 -7.36798,-8.58942 -9.44019,-10.30659 -2.57792,-2.13624 -8.28465,-7.88771 -8.28465,-8.34961 0,-0.23894 0.16491,-0.5713 0.36647,-0.73858 0.29437,-0.24431 1.00723,0.36095 3.62336,3.07645 6.23445,6.47127 12.02554,12.14195 13.2691,12.99321 l 1.25163,0.8568 -0.0137,2.52442 c -0.0136,2.51187 -0.0183,2.5296 -0.95169,3.5627 -0.51591,0.57105 -1.03295,1.03827 -1.14898,1.03827 -0.11603,0 -0.9821,-0.92274 -1.9246,-2.05052 z m -19.80471,-1.33974 c -1.83966,-1.90812 -3.031,-3.35764 -3.05838,-3.72116 -0.0247,-0.32752 0.0531,-0.55807 0.17292,-0.51235 0.11978,0.0457 1.54153,1.27377 3.15946,2.72898 2.75205,2.47527 2.9417,2.70979 2.94205,3.63802 2.1e-4,0.5457 -0.0453,0.99219 -0.10107,0.99219 -0.0558,0 -1.45754,-1.40656 -3.11498,-3.12568 z m -0.82493,-3.90383 c -2.00227,-2.11997 -3.57847,-3.95484 -3.50268,-4.07747 0.0758,-0.12264 0.34569,-0.19145 0.59978,-0.15292 0.31239,0.0474 0.44274,0.27534 0.40257,0.70404 -0.0327,0.34869 0.007,0.48515 0.0882,0.30325 0.0812,-0.1819 0.26469,-0.33073 0.4078,-0.33073 0.44898,0 3.17845,2.48427 3.42315,3.11564 0.12835,0.33115 0.44351,0.67602 0.70035,0.76639 1.07897,0.3796 1.9222,1.48397 1.9222,2.51747 0,0.55486 -0.0902,1.00884 -0.20044,1.00884 -0.11024,0 -1.83866,-1.73453 -3.84092,-3.85451 z m -3.5361,2.92787 c -0.21228,-0.55318 0.12876,-1.77538 0.44147,-1.58211 0.34439,0.21285 0.33006,1.97958 -0.0161,1.97958 -0.15009,0 -0.34153,-0.17886 -0.42541,-0.39747 z m -23.205486,-0.35097 c -0.352449,-0.38945 -0.437883,-1.06054 -0.437883,-3.43958 v -2.95573 h -1.168577 c -0.676156,0 -1.233612,-0.13936 -1.322917,-0.33073 -0.12347,-0.26458 -0.185208,-0.26458 -0.308679,0 -0.238056,0.51012 -1.817711,0.3999 -2.326523,-0.16233 -0.382395,-0.42254 -0.440725,-1.08583 -0.407842,-4.63767 0.03241,-3.50037 0.09539,-4.09729 0.405204,-3.84017 0.484079,0.40175 0.470103,-0.0518 -0.02162,-0.70197 -0.219966,-0.29082 -0.39211,-1.0983 -0.396875,-1.86164 -0.01363,-2.18286 0.09473,-2.22382 5.882175,-2.22382 2.707584,0 5.242285,0.12143 5.632672,0.26986 0.739425,0.28113 6.591731,6.00853 7.399931,7.242 0.7479,1.14144 0.18774,1.15235 -0.72033,0.014 -1.01457,-1.27181 -4.116546,-4.26871 -4.833046,-4.66933 -0.74167,-0.41469 3.040326,3.72172 4.623116,5.05634 1.23841,1.04424 1.32165,1.19234 1.32165,2.35132 v 1.23689 l -3.10885,-3.04523 c -3.556266,-3.48347 -5.009022,-4.79283 -4.685016,-4.22254 0.352121,0.61977 3.8139,4.43305 5.903396,6.50282 1.6611,1.64542 1.89046,1.9905 1.89046,2.84427 0,0.53441 -0.0893,0.96998 -0.19844,0.96793 -0.10914,-0.002 -1.15093,-1.07736 -2.3151,-2.38958 -1.908706,-2.15143 -3.838886,-4.00224 -6.282582,-6.02421 l -0.858813,-0.71061 0.921094,1.19063 c 0.5066,0.65484 2.678965,2.91842 4.827465,5.03018 l 3.906376,3.83955 v 1.79114 c 0,1.47298 -0.0823,1.8175 -0.46302,1.93946 -0.25466,0.0816 -1.13275,0.43501 -1.95132,0.78544 -1.377316,0.58964 -1.823056,0.63715 -5.978258,0.63715 -4.01379,0 -4.536408,-0.0513 -4.927851,-0.48386 z m 11.327886,-4.08021 c -2.635776,-2.84546 -6.751862,-6.97623 -8.191587,-8.22081 l -1.585192,-1.37033 1.320609,1.56156 c 1.295826,1.53225 9.08896,9.15406 9.35984,9.15406 0.0759,0 -0.33078,-0.50601 -0.90367,-1.12448 z m -4.801416,-1.65239 c -1.282934,-1.38177 -3.22592,-3.30556 -4.31775,-4.2751 -1.091829,-0.96955 -0.08154,0.16099 2.245088,2.51229 2.326622,2.35131 4.269612,4.2751 4.317742,4.2751 0.0481,0 -0.96215,-1.13053 -2.24508,-2.51229 z m -8.582254,-5.18501 c -0.570137,-0.36108 -0.763349,-0.28558 -0.763349,0.29827 0,0.46785 0.0741,0.49883 0.564912,0.23615 0.451345,-0.24155 0.491236,-0.34899 0.198437,-0.53442 z m -2.847718,-3.32921 c -0.230598,-0.39655 -0.282228,-0.40798 -0.288835,-0.0639 -0.0085,0.44558 0.269661,0.84677 0.457179,0.65925 0.06185,-0.0619 -0.01392,-0.32974 -0.168344,-0.59531 z m 16.901028,14.20151 c 0.70766,-0.55354 1.05834,-0.65874 1.05834,-0.3175 0,0.39493 -0.63263,0.84669 -1.1774,0.84078 -0.5072,-0.005 -0.49948,-0.0395 0.11906,-0.52328 z m 9.80961,-0.9015 c -0.57379,-0.61366 -0.56096,-0.81319 0.0461,-0.71733 0.10914,0.0172 0.19844,-0.23061 0.19844,-0.55075 0,-0.41284 0.0822,-0.49991 0.28263,-0.29945 0.15545,0.15544 0.24475,0.72608 0.19844,1.26808 l -0.0842,0.98545 z m 6.99518,-2.33965 c -0.84261,-0.9095 -1.87141,-2.02211 -2.28622,-2.47245 -0.41482,-0.45035 -0.67619,-0.89683 -0.58083,-0.99219 0.27472,-0.27472 2.15335,-0.20131 2.33414,0.0912 0.0899,0.14552 0.45014,0.26458 0.80044,0.26458 h 0.63692 l -0.54638,-0.92604 c -0.3005,-0.50933 -0.71321,-0.92604 -0.91712,-0.92604 -0.2039,0 -0.37074,-0.11907 -0.37074,-0.26459 0,-0.14552 -0.41671,-0.26458 -0.92604,-0.26458 -0.65519,0 -0.92604,-0.11851 -0.92604,-0.40518 0,-0.22285 -0.19668,-0.48065 -0.43707,-0.5729 -0.24039,-0.0922 -0.82773,-0.59453 -1.3052,-1.11617 -0.47747,-0.52165 -2.18491,-2.31768 -3.79432,-3.99117 -1.60941,-1.67349 -2.92707,-3.22831 -2.92814,-3.45516 -10e-4,-0.22685 0.14689,-0.61136 0.32879,-0.85447 0.29436,-0.39341 0.55468,-0.22232 2.36695,1.55557 1.79521,1.76115 2.04835,2.12848 2.13868,3.10343 0.0855,0.92315 0.1367,1.00749 0.30974,0.51053 0.11401,-0.32742 0.39045,-0.59531 0.61431,-0.59531 0.34016,0 0.32706,-0.0884 -0.0797,-0.53786 -0.45343,-0.50103 -0.80853,-2.90173 -0.42921,-2.90173 0.0864,0 0.86845,0.68461 1.73783,1.52136 1.33321,1.28317 1.41974,1.33495 0.55271,0.33073 -0.56539,-0.65485 -1.24415,-1.34669 -1.50838,-1.53742 -0.58266,-0.42061 -1.31427,-1.77083 -1.08418,-2.00092 0.61477,-0.61477 1.59161,0.006 4.83824,3.07531 l 3.42855,3.24115 0.006,1.27882 c 0.005,0.90757 -0.0895,1.24681 -0.32426,1.16858 -0.1819,-0.0606 -0.33073,-0.24915 -0.33073,-0.41893 1e-5,-0.16977 -0.0893,-0.30868 -0.19842,-0.30868 -0.10914,0 -0.28025,0 -0.38023,0 -0.1,0 0.12929,0.32742 0.50951,0.72761 0.68651,0.72255 0.69135,0.75745 0.69774,5.02708 0.004,2.36471 -0.0885,4.29948 -0.20465,4.29948 -0.1161,0 -0.9005,-0.74414 -1.74311,-1.65365 z m -0.6652,-2.84427 c -0.15576,-0.29104 -0.3274,-0.52916 -0.38141,-0.52916 -0.054,0 -0.0359,0.23812 0.0402,0.52916 0.0761,0.29104 0.24775,0.52917 0.38142,0.52917 0.13426,0 0.11629,-0.23682 -0.0402,-0.52917 z m 0.20318,-6.87916 c -0.18176,-0.29105 -0.43935,-0.52917 -0.57242,-0.52917 -0.13307,0 -0.0264,0.23812 0.23695,0.52917 0.26339,0.29104 0.52097,0.52916 0.57241,0.52916 0.0514,0 -0.0552,-0.23812 -0.23694,-0.52916 z m -1.26152,-1.32292 c 0,-0.14552 -0.12609,-0.26458 -0.28019,-0.26458 -0.15411,0 -0.20662,0.11906 -0.11668,0.26458 0.0899,0.14552 0.21603,0.26458 0.2802,0.26458 0.0642,0 0.11667,-0.11906 0.11667,-0.26458 z m -7.87135,10.94777 c -1.62971,-1.45178 -1.65348,-1.49285 -1.64254,-2.837 l 0.0111,-1.3639 1.84097,1.94305 c 1.53763,1.62288 1.84097,2.09155 1.84097,2.84427 0,0.49568 -0.0893,0.89795 -0.19843,0.89395 -0.10914,-0.004 -0.94258,-0.67017 -1.85209,-1.48037 z m 28.77344,-2.92101 c -1.81901,-1.98797 -5.40574,-5.6337 -7.9705,-8.10161 -3.51967,-3.38675 -4.63133,-4.60903 -4.53321,-4.98426 0.0715,-0.27343 0.2938,-0.49714 0.49398,-0.49714 0.20019,0 2.68282,2.29195 5.51696,5.09323 2.83414,2.80127 6.20553,6.04573 7.49198,7.20989 l 2.33899,2.11667 0.0422,1.38906 c 0.0232,0.76399 0.0163,1.38898 -0.0155,1.38887 -0.0317,-1.1e-4 -1.54597,-1.62673 -3.36498,-3.61471 z m -24.60867,2.68595 c -0.17983,-0.21668 -0.54632,-0.39396 -0.81442,-0.39396 -0.2681,0 -0.62259,-0.25249 -0.78775,-0.5611 -0.21105,-0.39435 -0.21382,-0.50765 -0.009,-0.38126 0.16406,0.1014 0.29098,-9e-5 0.29098,-0.23265 0,-0.22687 0.11906,-0.41249 0.26458,-0.41249 0.14553,0 0.26459,0.17859 0.26459,0.39687 0,0.21829 0.14883,0.40062 0.33073,0.40519 0.44017,0.0111 1.3222,1.24294 1.02256,1.42813 -0.12925,0.0799 -0.38213,-0.032 -0.56196,-0.24873 z m -3.4856,-2.70323 c -0.5167,-0.54891 -1.25297,-1.21194 -1.63614,-1.47339 -0.56967,-0.38871 -0.69521,-0.67813 -0.68863,-1.5875 l 0.008,-1.11213 1.99333,2.06297 c 1.85143,1.91611 2.28755,2.76696 1.54496,3.01417 -0.15515,0.0516 -0.70485,-0.35521 -1.22156,-0.90412 z m 24.68859,-6.4339 c -3.69213,-3.79003 -6.64181,-6.96212 -6.55483,-7.0491 0.087,-0.087 0.33961,-0.008 0.56141,0.17654 0.27578,0.22888 0.40327,0.2408 0.40327,0.0377 0,-0.54802 0.68804,-0.30405 1.47185,0.52189 0.42741,0.45038 2.20585,2.14117 3.9521,3.75731 1.74625,1.61615 2.66899,2.40401 2.05052,1.75081 -0.61846,-0.65321 -1.12447,-1.38558 -1.12447,-1.6275 0,-0.24193 -0.1861,-0.54401 -0.41354,-0.67129 -0.29943,-0.16757 -0.36278,-0.43366 -0.22959,-0.96433 0.13467,-0.53658 0.24436,-0.63758 0.40948,-0.37703 0.18486,0.29168 0.22627,0.28728 0.22959,-0.0244 0.003,-0.24777 0.28081,-0.11509 0.79846,0.38086 0.5731,0.54906 0.7027,0.81775 0.46523,0.96452 -0.26058,0.16105 -0.25729,0.27465 0.0158,0.54519 0.28225,0.27958 0.39477,0.2535 0.61864,-0.14341 0.26036,-0.46161 0.3045,-0.45616 0.90956,0.11226 0.75654,0.71073 0.79424,0.95418 0.17291,1.11655 -0.30667,0.0801 -0.2344,0.13136 0.21401,0.15169 0.79814,0.0362 1.23265,0.36466 2.1405,1.61819 0.61139,0.84417 0.67399,1.17751 0.70804,3.77032 0.0205,1.56435 0.01,2.84424 -0.0243,2.8442 -0.0339,-3e-5 -3.08251,-3.10099 -6.77464,-6.89102 z m -10.68925,5.28432 c -0.92506,-0.76251 -0.98632,-0.90528 -0.98632,-2.29855 v -1.48553 l 1.91823,2.07322 c 1.05502,1.14028 1.95791,2.17463 2.00642,2.29855 0.0485,0.12393 -0.37085,0.22533 -0.9319,0.22533 -0.74844,0 -1.28277,-0.21652 -2.00643,-0.81302 z m -9.66567,-0.58864 c -0.46511,-0.47987 -0.84565,-1.12769 -0.84565,-1.4396 0,-0.3119 -0.11906,-0.64068 -0.26459,-0.73062 -0.14552,-0.0899 -0.26458,-0.46873 -0.26458,-0.84176 0,-0.58176 0.0582,-0.62997 0.40892,-0.33887 0.2249,0.18665 0.34533,0.50507 0.26761,0.7076 -0.0828,0.21568 -0.025,0.29637 0.13934,0.19478 0.15435,-0.0954 0.80583,0.37467 1.44773,1.04459 0.64189,0.66992 1.04299,1.21804 0.89134,1.21804 -0.15167,0 -0.19917,0.1239 -0.10558,0.27534 0.0936,0.15144 0.38147,0.20828 0.63972,0.12632 0.2595,-0.0824 0.61911,0.0312 0.80388,0.25382 0.2917,0.35147 0.1681,0.40285 -0.96908,0.40285 -1.12702,0 -1.41785,-0.11807 -2.14906,-0.87249 z m -4.77063,-1.86403 c -1.66719,-1.65508 -1.92718,-2.03603 -1.84532,-2.70385 0.0952,-0.77643 0.0977,-0.77497 2.16662,1.25382 1.13924,1.11714 1.99237,2.15894 1.89585,2.3151 -0.0965,0.15617 0.0101,0.28395 0.237,0.28395 0.5365,0 0.53244,0.42652 -0.006,0.63315 -0.23018,0.0883 -0.43854,0.15694 -0.46302,0.15247 -0.0245,-0.004 -0.91778,-0.87506 -1.98511,-1.93464 z m -64.132262,-0.21956 c -0.35795,-1.07385 3.460581,-8.90962 6.746917,-13.844943 4.372447,-6.566414 10.410503,-12.769292 16.89556,-17.356763 7.088264,-5.014174 15.145552,-8.321897 24.438725,-10.032722 0.873125,-0.160737 1.825625,-0.338325 2.116666,-0.394637 0.291042,-0.05631 2.572578,-0.2855883 5.070074,-0.5095053 4.06867,-0.364779 5.05924,-0.365538 9.525,-0.0073 2.74125,0.219901 5.34128,0.5077623 5.77784,0.6396913 0.43656,0.131927 1.32953,0.319858 1.98437,0.417627 3.46324,0.517054 10.25732,2.786033 14.68438,4.904052 6.59252,3.154029 11.50759,6.630794 17.12265,12.112017 5.76295,5.625603 10.18219,11.895853 13.54297,19.215523 0.97831,2.13072 1.74158,4.13524 1.69615,4.45449 -0.0802,0.56349 -0.19458,0.58236 -3.91906,0.64642 -2.11005,0.0363 -3.96854,-0.0233 -4.12998,-0.1323 -0.16144,-0.10905 -1.1491,-1.84797 -2.1948,-3.86427 -2.23537,-4.31017 -4.31669,-7.48083 -7.01287,-10.683325 -7.25361,-8.615747 -15.92642,-14.206202 -27.98158,-18.036803 -1.01,-0.320934 -3.86432,-0.841737 -8.15786,-1.488493 -4.23116,-0.637362 -12.740086,-0.421129 -15.874992,0.403424 -0.509323,0.133961 -2.235729,0.553625 -3.836458,0.932585 -1.60073,0.378957 -3.148542,0.788429 -3.439584,0.909939 -0.291042,0.121507 -1.303073,0.485865 -2.248958,0.809683 -1.711394,0.585885 -3.831358,1.507739 -6.624456,2.880606 -1.994537,0.980361 -7.995258,4.974604 -9.775947,6.507139 -6.304925,5.426282 -11.085682,11.489325 -14.436807,18.309055 -0.843815,1.7172 -1.662282,3.20967 -1.818812,3.31658 -0.499131,0.34091 -8.032788,0.24127 -8.149138,-0.10778 z m 64.129592,-2.86436 c -1.60805,-1.68518 -1.89319,-2.12323 -1.89319,-2.90841 v -0.92441 l 2.14924,2.14924 c 2.03141,2.0314 2.1352,2.19086 1.89319,2.90841 l -0.25605,0.75917 z m 8.16098,-4.10142 -2.76867,-2.77812 h 1.193 c 1.12184,0 1.29908,0.10691 2.97183,1.79258 1.5562,1.56822 1.77884,1.91592 1.77884,2.77812 0,0.54205 -0.0914,0.98555 -0.20316,0.98555 -0.11174,0 -1.44907,-1.25016 -2.97184,-2.77813 z m -7.00461,-0.65454 c -0.86025,-0.86932 -1.48233,-1.66234 -1.3824,-1.76226 0.0999,-0.0999 0.40015,0.016 0.66716,0.25766 0.26701,0.24164 0.57803,0.43935 0.69115,0.43935 0.31384,0 1.31789,1.34865 1.51572,2.03593 0.0965,0.33545 0.15235,0.60991 0.124,0.60991 -0.0284,0 -0.75538,-0.71127 -1.61563,-1.58059 z m 22.26711,0.3078 c -0.53625,-0.54916 -0.975,-1.10315 -0.975,-1.23108 0,-0.12793 -0.19704,-0.45033 -0.43788,-0.71645 -0.41721,-0.461 -0.38842,-0.48385 0.60956,-0.48385 0.84972,0 1.21686,0.1748 1.94499,0.92604 0.64796,0.66852 0.7771,0.92604 0.46439,0.92604 -0.23824,0 -0.50675,-0.11906 -0.59668,-0.26458 -0.0899,-0.14552 -0.33108,-0.26458 -0.53586,-0.26458 -0.28606,0 -0.24418,0.21721 0.1807,0.93733 0.76237,1.29212 0.5059,1.35921 -0.65422,0.17113 z m -13.675,-1.24076 -1.16851,-1.19062 h 0.84884 c 1.02352,0 1.90717,0.79683 1.90717,1.71979 0,0.3638 -0.0943,0.66146 -0.20949,0.66146 -0.11523,0 -0.73533,-0.53578 -1.37801,-1.19063 z m -7.9375,-0.12876 c -0.21828,-0.12646 -0.60523,-0.29432 -0.85989,-0.37301 -0.67348,-0.20811 -0.56717,-0.68885 0.15231,-0.68885 0.33844,0 0.89497,0.29765 1.23675,0.66146 0.62732,0.66775 0.32592,0.89581 -0.52917,0.4004 z m -9.60074,-4.66538 c -0.10387,-0.10387 -0.18884,-0.581528 -0.18884,-1.061477 0,-0.613659 -0.16369,-0.960242 -0.55157,-1.167826 -0.75931,-0.406371 -1.300516,-1.829216 -1.300516,-3.419097 v -1.331415 h 1.719796 1.71979 v 1.049025 c 0,0.785011 0.13581,1.121707 0.53962,1.337824 0.48636,0.260286 0.53207,0.502827 0.46302,2.456704 l -0.0766,2.167902 -1.06793,0.0786 c -0.58736,0.0432 -1.15291,-0.006 -1.25677,-0.11024 z m 2.98616,-2.139173 c 0,-2.045557 0.065,-2.372706 0.52916,-2.662573 0.53443,-0.333751 0.66728,-0.981139 0.36369,-1.77227 -0.091,-0.237175 -1.17671,-1.097179 -2.41267,-1.911119 -1.85837,-1.223831 -2.33834,-1.685965 -2.77402,-2.670869 -0.795696,-1.798815 -0.35386,-4.410517 0.89624,-5.297667 0.33237,-0.235871 0.48718,-0.677273 0.48718,-1.389063 v -1.043331 h 1.19063 1.19062 v 2.365634 c 0,1.301099 -0.11906,2.43922 -0.26458,2.529157 -0.37222,0.230045 -0.32954,1.538359 0.0661,2.027489 0.1819,0.224859 1.04511,0.834118 1.91823,1.353908 0.87313,0.519787 1.94266,1.316773 2.37675,1.771073 0.70106,0.733705 0.80016,1.041974 0.88685,2.758728 0.10556,2.090407 -0.30524,3.341503 -1.26604,3.855705 -0.33492,0.179244 -0.53873,0.614188 -0.59257,1.264613 -0.0813,0.981688 -0.0944,0.992188 -1.33884,1.072048 l -1.25677,0.0806 z m 0.79375,-10.64586 c 0,-0.573495 -0.11906,-1.116303 -0.26459,-1.206241 -0.14552,-0.08994 -0.26458,-1.228058 -0.26458,-2.529157 v -2.365634 h 1.19063 1.19062 v 0.957257 c 0,0.686337 0.22465,1.213117 0.79375,1.861291 0.70688,0.805087 0.79375,1.09125 0.79375,2.614618 v 1.710584 h -1.71979 -1.71979 z"
       id="path40" />
  </g>
</svg>
