<?xml version="1.0" encoding="UTF-8"?>
<svg width="256.24mm" height="140.09mm" version="1.1" viewBox="0 0 256.24335 140.0903" xmlns="http://www.w3.org/2000/svg">
<g transform="translate(22.508 -9.3976)">
<path d="m101.05 148.3v-1.1906h1.0253c0.56389 0 1.3973 0.0744 1.8521 0.16536 0.75534 0.15107 0.82682 0.254 0.82682 1.1906v1.0253h-3.7042zm4.7096 1.0495c-0.091-0.091-0.1805-2.1206-0.19882-4.5101l-0.0333-4.3446h1.1726c0.76529 0 1.2223 0.12966 1.3158 0.37332 0.0788 0.20532 0.16912 2.1996 0.20072 4.4318l0.0575 4.0584-1.1744 0.0784c-0.64594 0.0431-1.2489 4e-3 -1.34-0.0872zm-7.7171-0.33106c-0.0706-0.11417 0.067-2.1437 0.30575-4.5101l0.43405-4.3025 1.2 0.0783c0.65999 0.0431 1.1951 0.19738 1.189 0.3429-6e-3 0.14552-0.10975 2.1398-0.2305 4.4318l-0.21953 4.1672h-1.2752c-0.70139 0-1.333-0.0934-1.4036-0.20759zm12.874-0.32157c-0.0761-0.29105-0.24234-0.52917-0.3694-0.52917s-0.65451-0.63783-1.1721-1.4174c-0.89458-1.3473-0.93722-1.5141-0.8626-3.3734l0.0785-1.956 1.0296 1.5214c0.56631 0.83674 1.0751 1.5214 1.1307 1.5214 0.0556 0 0.0216-0.9525-0.0755-2.1167l-0.17652-2.1167h2.4249l0.14643 1.1245c0.0805 0.61846 0.13926 1.4221 0.13049 1.7859-9e-3 0.36381 0.14839 1.7926 0.34923 3.175 0.25552 1.7588 0.28078 2.5719 0.0842 2.7079-0.15455 0.10692-0.79817 0.19621-1.4303 0.19844-0.92864 3e-3 -1.1758-0.0975-1.2876-0.52511zm-18.828-0.50224c-0.29622-0.18766-0.30785-0.5129-0.06371-1.7819 0.29769-1.5473 0.44618-2.3872 0.70356-3.9793 0.1431-0.88524 0.14577-0.88307-1.5531-1.2624-0.68284-0.15245-0.73076-0.23913-0.56207-1.0168 0.10142-0.46756 0.29286-0.91936 0.42541-1.004 0.13255-0.0846 1.338 0.0606 2.6787 0.32273 1.3408 0.26214 2.8247 0.48021 3.2976 0.48461 0.8192 8e-3 0.85989 0.056 0.85989 1.0222 0 0.55783-0.0655 1.0797-0.14553 1.1598-0.08 0.08-0.58596 0.0462-1.1242-0.0752-0.53829-0.12141-1.0679-0.1315-1.177-0.0224-0.10906 0.10906-0.39648 1.5915-0.6387 3.2943l-0.4404 3.096-0.94903-4e-3c-0.52197-2e-3 -1.1121-0.10735-1.3114-0.2336zm1.6946-3.4445c-0.02611-0.48862-0.18352-0.6835-0.5521-0.6835-0.53066 0-0.70983 0.57342-0.33758 1.0804 0.39802 0.54204 0.92722 0.30597 0.88968-0.39688zm-0.69105 0.48507c-0.01114-0.0606-0.05722-0.29876-0.10241-0.52916-0.04519-0.23041 0.06954-0.41893 0.25494-0.41893 0.18541 0 0.31431 0.15531 0.28646 0.34512-0.04975 0.33896-0.39931 0.81909-0.43899 0.60297zm1.4482-1.5214c0.07495-0.12127-0.03185-0.22049-0.23733-0.22049-0.20548 0-0.31228 0.0992-0.23733 0.22049 0.07495 0.12127 0.18174 0.22049 0.23733 0.22049 0.05558 0 0.16238-0.0992 0.23733-0.22049zm22.795 3.6259c-0.0882-0.63607-0.21564-1.6328-0.28321-2.2148-0.0676-0.58208-0.21585-1.5346-0.32953-2.1167l-0.20668-1.0583-1.2401 0.0891c-1.1404 0.0819-1.2537 0.035-1.409-0.58396-0.0929-0.37016-0.12051-0.81824-0.0613-0.99573 0.0614-0.18434 1.567-0.58965 3.5111-0.94526 3.6951-0.67587 3.8293-0.64863 3.8373 0.77912 4e-3 0.64159-0.11703 0.74384-1.0543 0.89371-0.97674 0.15619-1.0583 0.23394-1.0583 1.0085 0 0.46162-0.14882 0.98924-0.33072 1.1725-0.26504 0.26699-0.24675 0.30123 0.0921 0.17234 0.34728-0.13211 0.50094 0.22882 0.86041 2.0211 0.2523 1.2579 0.33894 2.2806 0.20457 2.415-0.12819 0.12819-0.71428 0.29761-1.3024 0.3765l-1.0694 0.14343zm1.3531-2.2678c0-0.18914-0.10625-0.34389-0.2361-0.34389-0.12986 0-0.15115-0.13746-0.0473-0.30547 0.11791-0.19077 0.0725-0.23358-0.12099-0.11401-0.17038 0.1053-0.24636 0.29407-0.16886 0.41948 0.0775 0.1254 2e-3 0.31417-0.16885 0.41947-0.1773 0.10958-0.23935 0.0775-0.14509-0.075 0.0906-0.14657 3e-3 -0.48707-0.19373-0.75667-0.33633-0.45996-0.3562-0.45013-0.32225 0.15946 0.0199 0.3573 0.14759 0.72987 0.28377 0.82793 0.40163 0.2892 1.1194 0.14091 1.1194-0.23127zm-0.40722-1.8652c0.3291-0.41964 0.31974-0.429-0.0999-0.0999-0.25466 0.19973-0.46302 0.40808-0.46302 0.46303 0 0.21776 0.21727 0.0776 0.56292-0.36313zm-31.982 3.876c-0.9562-0.2814-0.95976-0.29009-0.61364-1.497 0.20588-0.71786 0.16639-0.90139-0.24086-1.1193-0.42084-0.22523-0.44885-0.38537-0.20589-1.177 0.18809-0.61285 0.46502-0.94257 0.83617-0.99558 0.41139-0.0588 0.54194-0.25036 0.50466-0.74072-0.07775-1.0227 0.52137-3.2201 0.91966-3.3729 0.56324-0.21613 0.85134 0.25824 1.3438 2.2127 0.44666 1.7726 0.44398 1.8894-0.09943 4.3352-0.61053 2.7479-0.72698 2.86-2.4445 2.3546zm37.376-0.033c-0.46174-1.3254-1.9895-8.0202-1.8897-8.2805 0.12028-0.31342 1.9601-0.80253 2.1824-0.58019 0.10443 0.10443 0.74064 2.2616 1.9128 6.4859l0.53587 1.9311-0.57858 0.21293c-1.3304 0.4896-2.0461 0.56597-2.1629 0.23077zm2.7729-1.4018c-0.3736-1.132-0.28913-1.2383 1.4382-1.8107 1.7718-0.58708 1.8739-0.56455 2.1959 0.48456 0.33464 1.0904 0.17302 1.2798-1.4658 1.718-0.62756 0.16781-1.3002 0.3662-1.4948 0.44088-0.22828 0.0876-0.46723-0.20787-0.67346-0.83277zm-44.117 0.27323c-0.92604-0.4025-1.0881-0.92705-0.47562-1.5395 0.21135-0.21135 0.33474-0.43382 0.27419-0.49437-0.06055-0.0605 0.12056-0.87889 0.40247-1.8186 0.44684-1.4894 0.71456-1.8863 2.0882-3.0954 1.0205-0.89828 1.7221-1.3307 1.9914-1.2274 0.22868 0.0877 0.41579 0.18474 0.41579 0.21552 0 0.4954-0.89404 2.8163-1.1746 3.0491-0.20853 0.17306-0.59511 1.1548-0.85906 2.1818-0.26396 1.0269-0.61559 1.9193-0.78141 1.9831-0.16582 0.0638-0.24123 0.34642-0.16758 0.62807 0.16328 0.62439-0.45082 0.66654-1.7137 0.11762zm0.73135-1.9798c-0.13734-0.25663-0.16461-0.56762-0.06059-0.6911 0.10402-0.12347 5.3e-4 -0.0814-0.22997 0.0935-0.34052 0.25834-0.43663 0.84548-0.2644 1.6152 0.01212 0.0542 0.19814-0.0476 0.41336-0.22622 0.27753-0.23034 0.31871-0.46043 0.1416-0.79136zm18.252 0.88596v-1.2237l0.82682 0.16536c0.45476 0.0909 0.93101 0.16537 1.0583 0.16537s0.23151 0.47625 0.23151 1.0583v1.0583h-2.1167zm1.4533 0.43298c0.0927-0.14998-0.0135-0.19434-0.24897-0.10398-0.45837 0.17589-0.54224 0.36554-0.16165 0.36554 0.13693 0 0.32171-0.1177 0.41062-0.26156zm-24.935-0.92665c-0.9862-0.42865-0.94775-0.3329-0.56943-1.4182 0.21202-0.60819 0.45448-0.83323 0.89773-0.83323 0.334 0 0.67954-0.18833 0.76787-0.41851 0.22693-0.59136 0.20903-0.63982-0.23628-0.63982-0.47537 0-0.50804-0.52486-0.08982-1.4428 0.20167-0.44262 0.51949-0.67391 0.92604-0.67391 0.69775 0 0.84731-0.68397 0.25396-1.1615-0.3103-0.2497-0.31018-0.42269 7.93e-4 -1.1536 0.20118-0.47295 0.53844-0.8599 0.74945-0.8599 0.81267 0 1.7684 0.65922 2.1638 1.4925 0.37761 0.79574 0.37396 0.97052-0.04303 2.0624-0.25058 0.65613-0.67546 1.2628-0.94419 1.348-0.40128 0.12736-0.43433 0.24195-0.18497 0.64124 0.50314 0.80565-0.40101 2.8072-1.4301 3.166-1.0289 0.3587-1.2057 0.35019-2.2618-0.10881zm-2.712-1.1562c-0.52072-0.26256-0.89236-0.63337-0.84908-0.84718 0.21763-1.0753 3.3978-7.6563 3.6998-7.6563 0.357 0 1.9118 0.7316 1.9118 0.89959 0 0.0707-1.7575 4.4777-3.0969 7.7655-0.17811 0.43722-0.54944 0.40119-1.6656-0.16163zm3.9015-6.4925c0.44963-0.52958 0.44811-0.5344-0.04844-0.15434-0.47096 0.36048-0.49688 0.35058-0.31934-0.12202 0.1783-0.47463 0.1566-0.4824-0.28119-0.10067-0.26092 0.22752-0.62323 0.35975-0.80514 0.29385s-0.33073 0.0162-0.33073 0.18243c0 0.16624 0.11906 0.22866 0.26458 0.13873 0.14552-0.0899 0.26458-0.0573 0.26458 0.0726 0 0.43604 0.78707 0.24137 1.2557-0.31056zm46.616 5.9825c-0.14411-0.39461-0.31359-0.86448-0.37661-1.0442-0.14258-0.40648 0.67404-0.86394 1.5422-0.86394 0.49615 0 0.72356 0.20251 0.9469 0.8432 0.33137 0.95055 0.24435 1.083-0.98018 1.4918-0.81872 0.27333-0.88582 0.24803-1.1323-0.42691zm1.3749-0.51903c0.3291-0.41965 0.31974-0.42901-0.0999-0.0999-0.25466 0.19972-0.46302 0.40808-0.46302 0.46302 0 0.21776 0.21727 0.0776 0.56292-0.36312zm-25.599-0.3638c0.0909-0.45476 0.16536-0.93101 0.16536-1.0583s0.71438-0.23151 1.5875-0.23151h1.5875v2.1167h-3.5057zm2.6649-0.5187c-0.0852-0.13784-0.26767-0.18091-0.40551-0.0957-0.13784 0.0852-0.18091 0.26766-0.0957 0.4055 0.0852 0.13784 0.26766 0.18092 0.4055 0.0957 0.13784-0.0852 0.18092-0.26767 0.0957-0.40551zm32.713 0.22104c-0.26807-0.61846-1.0377-2.3602-1.7104-3.8706-0.67265-1.5104-1.223-2.8559-1.223-2.9901 0-0.23637 1.8345-1.1245 1.983-0.96007 0.14184 0.15705 3.8378 7.6164 3.8378 7.7457 0 0.1382-1.9888 1.1995-2.2478 1.1995-0.0837 0-0.37156-0.50602-0.63962-1.1245zm-0.55214-4.9609c0.34203-0.22103 0.33504-0.25704-0.0505-0.26053-0.24607-2e-3 -0.52099 0.11501-0.61093 0.26053-0.20695 0.33486 0.14331 0.33486 0.66146 0zm-0.39687-0.52917c0.0899-0.14552-0.0221-0.26458-0.24897-0.26458s-0.41249-0.1389-0.41249-0.30868c0-0.16977-0.0623-0.24635-0.13852-0.17016-0.19164 0.19164 0.1451 1.008 0.41579 1.008 0.12137 0 0.29425-0.11906 0.38419-0.26459zm-64.095 5.6236c-0.47294-0.23537-0.8599-0.52806-0.8599-0.65041s0.47625-1.1697 1.0583-2.3274c0.58208-1.1577 1.0583-2.1688 1.0583-2.2468 0-0.0781-0.47867 0.17485-1.0637 0.56201-0.58504 0.38716-1.1444 0.62325-1.243 0.52464-0.25673-0.25673 1.3143-3.0636 1.6118-2.8798 0.13614 0.0841 0.16521 0.0198 0.0646-0.14301-0.10768-0.17422 0.25618-0.57318 0.88449-0.96981l1.0674-0.67384 1.3345 0.69779c0.73397 0.38378 1.2998 0.79257 1.2574 0.90842-0.04238 0.11586-0.85096 1.8834-1.7968 3.9279-1.1085 2.3959-1.8609 3.7139-2.1167 3.7078-0.21828-5e-3 -0.78383-0.20205-1.2568-0.43743zm4.111-6.9827c-0.06605-0.19816-0.18599-0.0782-0.27955 0.27954-0.11509 0.4401-0.08065 0.5434 0.11569 0.34706 0.15375-0.15375 0.22749-0.43572 0.16386-0.6266zm65.207 5.79c-0.14533-0.18142-0.52237-0.84211-0.83787-1.4682-0.45171-0.89638-0.68056-1.1044-1.0766-0.97872-0.67917 0.21556-1.5242-1.292-1.0467-1.8673 0.17095-0.20598 0.24031-0.55823 0.15413-0.78279-0.10295-0.26828 0.0684-0.51083 0.49957-0.7073 0.36093-0.16445 0.65624-0.41072 0.65624-0.54725 0-0.13654-0.43392 8e-3 -0.96427 0.32069-1.0896 0.64285-1.5927 0.56094-1.9186-0.31237-0.31438-0.8425 0.76326-1.5426 2.1665-1.4074 0.56261 0.0542 1.0524 0.1387 1.0883 0.18779 0.69591 0.95034 1.1646 2.0792 1.0481 2.5246-0.10516 0.40212 3e-3 0.60341 0.38936 0.7261 0.47436 0.15056 2.1594 2.7008 2.1594 3.2681 0 0.12093-0.46199 0.47953-1.0267 0.79688-0.80175 0.45061-1.0845 0.50476-1.2909 0.24716zm-1.122-5.7455c0-0.14095-0.17859-0.18774-0.39688-0.10398-0.21828 0.0838-0.39687 0.19909-0.39687 0.25628 0 0.0572 0.17859 0.10398 0.39687 0.10398 0.21829 0 0.39688-0.11533 0.39688-0.25628zm-15.167 5.0849c-0.0642-0.10914-0.19683-0.57198-0.29467-1.0285-0.1716-0.80078-0.13365-0.84516 1.0744-1.2568 0.68873-0.23468 1.4154-0.42668 1.6148-0.42668 0.36286 0 1.1759 1.5649 0.9788 1.8838-0.11472 0.18563-2.5649 1.0266-2.991 1.0266-0.14597 0-0.31796-0.0893-0.3822-0.19843zm2.114-1.5214c0-0.44016-0.32702-0.53072-0.5593-0.15489-0.0823 0.13309 2e-5 0.30229 0.18283 0.37599 0.1828 0.0737 0.3423 0.1434 0.35442 0.15489 0.0121 0.0115 0.022-0.15771 0.022-0.37599zm-61.354-0.0469c-0.82315-0.56541-0.94113-0.75835-0.7183-1.1747 0.32096-0.59972 0.6337-0.66625 0.41164-0.0876-0.09589 0.24989-0.04813 0.34298 0.12202 0.23782 0.15377-0.095 0.2164-0.33747 0.13917-0.53873-0.14805-0.38582 0.62499-1.9573 0.96424-1.9601 0.10914-7.9e-4 0.19844-0.12732 0.19844-0.28089 0-0.15358 0.60957-1.2295 1.3546-2.3909 1.4976-2.3347 1.162-2.239 3.2095-0.91464 1.0659 0.68949 1.0287 2.5302-0.0914 4.5148-0.45045 0.79816-0.9267 1.5178-1.0583 1.5991-0.13163 0.0813-0.23933-0.45443-0.23933-1.1906s-0.0893-1.3371-0.19844-1.3354c-0.10914 2e-3 -0.60125 0.74586-1.0936 1.6536-0.90786 1.674-1.5721 2.5895-1.8579 2.5606-0.08658-9e-3 -0.60064-0.32034-1.1423-0.69244zm2.1755-4.3794c0-0.15486-0.16812-0.12914-0.39688 0.0607-0.21828 0.18116-0.39688 0.37059-0.39688 0.42097 0 0.0504 0.17859 0.0231 0.39688-0.0607 0.21828-0.0838 0.39688-0.2732 0.39688-0.42097zm74.478 1.6111c-1.1283-1.9122-2.1014-3.6683-2.1624-3.9026-0.0721-0.27685 0.20993-0.59834 0.80569-0.91849 0.95003-0.51052 1.6311-0.38691 1.3861 0.25156-0.0774 0.20181-0.0102 0.3386 0.14943 0.30396 0.29128-0.0632 4.1869 5.7908 4.1838 6.287-2e-3 0.28075-1.6768 1.4552-2.0754 1.4552-0.12962 0-1.1588-1.5645-2.2871-3.4767zm-39.833 2.5801c-0.0795-0.0795-1.5672-0.27156-3.3061-0.42683-3.3091-0.29547-7.7905-1.0865-10.041-1.7723-9.4875-2.8915-15.986-6.1374-22.49-11.233-6.0562-4.7452-15.011-14.799-14.045-15.769 0.10813-0.10853 2.1487-0.23506 4.5346-0.28119l4.338-0.0839 4.0411 4.0714c2.2226 2.2392 4.8746 4.7336 5.8932 5.5431 4.8366 3.8433 10.84 7.025 16.801 8.9046 8.0999 2.554 13.617 3.2695 21.123 2.7397 5.1134-0.3609 11.069-1.5062 13.934-2.6796 0.29104-0.1192 1.2435-0.49086 2.1167-0.82592 2.5526-0.97954 5.358-2.3415 8.3221-4.0402 2.4075-1.3798 5.1597-3.1699 5.5685-3.6221 0.0728-0.0805 0.9062-0.75736 1.8521-1.5042 1.6321-1.2886 5.6489-5.2716 6.7598-6.7029 0.28392-0.36581 0.85969-0.93135 1.2795-1.2568 0.72107-0.55895 1.0101-0.59167 5.2255-0.59167 4.0912 0 4.4622 0.0389 4.4622 0.46792 0 0.93418-4.9387 7.0617-8.9958 11.161-3.3037 3.3382-8.7525 7.357-13.132 9.6857-1.2903 0.68603-2.465 1.3366-2.6105 1.4456-0.48895 0.36641-5.8015 2.586-7.8052 3.2611-3.5083 1.1819-7.3848 2.1273-12.303 3.0004-2.3013 0.4085-11.23 0.80257-11.524 0.50861zm-40.533-2.2079c-0.40018-0.25172-0.7276-0.56054-0.7276-0.68627 0-0.44072 1.0981-1.7655 1.4634-1.7655 0.4423 0 2.6575-3.1631 2.5526-3.6448-0.04043-0.18565 0.17976-0.69321 0.48929-1.1279l0.5628-0.79037 0.7432 0.5292c0.45757 0.32582 0.80725 0.87063 0.90986 1.4176 0.14496 0.7727-0.02932 1.1866-1.3382 3.1784-0.82766 1.2595-1.6571 2.29-1.8432 2.29-0.18611 0-0.43359 0.16912-0.54997 0.37581-0.34737 0.61699-1.4618 0.72728-2.2621 0.22388zm1.1245-0.3351c0-0.14552-0.12609-0.26459-0.2802-0.26459s-0.20661 0.11907-0.11668 0.26459c0.08994 0.14552 0.21603 0.26458 0.2802 0.26458 0.06417 0 0.11668-0.11906 0.11668-0.26458zm84.257 0.54077c-0.2979-0.12068-1.294-1.3604-2.2135-2.7548-1.4527-2.203-1.6505-2.6493-1.5088-3.4044 0.16499-0.87947 1.1218-1.7533 1.4767-1.3486 0.63103 0.7195 4.7716 6.7667 4.7716 6.9688 0 0.63771-1.495 0.95672-2.526 0.53901zm2.2513-1.6133c-0.52898-0.74288-0.54138-0.84548-0.15392-1.2736 0.33486-0.37002 0.35423-0.53346 0.0943-0.79589-0.26036-0.26286-0.13813-0.48745 0.59893-1.1005 1.1624-0.9669 1.42-0.96908 2.0974-0.0178 0.75326 1.0579 0.49127 2.1987-0.7375 3.2116-0.52323 0.43129-1.0352 0.78417-1.1376 0.78417-0.10245 0-0.44518-0.36359-0.7616-0.80797zm-89.154-1e-3c0-0.15411-0.10315-0.21645-0.22922-0.13853-0.3433 0.21217-1.0118-0.66343-1.2062-1.5798-0.15213-0.7173 0.05414-1.0957 1.8387-3.3734 1.984-2.5323 2.0248-2.5655 3.1436-2.5655 0.7887 0 1.2759 0.15731 1.6015 0.51712 0.44956 0.49675 0.44336 0.54826-0.15743 1.3083-0.34398 0.43514-0.7536 0.79775-0.91028 0.8058-0.40796 0.021-2.5848 3.0993-2.6305 3.7199-0.06415 0.87079-1.4503 2.1192-1.4503 1.3062zm-5.2765-3.9289c-0.90576-0.75103-0.90827-0.75924-0.44761-1.4623 0.56675-0.86497 1.113-1.1019 1.6029-0.69535 0.2533 0.21023 0.42401 0.21956 0.54141 0.0296 0.28753-0.46524 0.76111-0.31302 1.6667 0.5357l0.86498 0.81069-0.55227 0.77559c-0.77156 1.0836-2.3734 1.0862-3.6761 6e-3zm96.147-1.7364c-1.8504-2.3006-2.0004-2.5769-1.8311-3.3734 0.201-0.94546 0.82097-1.7936 1.3111-1.7936 0.41096 0 1.5058 1.1788 1.4063 1.5141-0.10598 0.35718 2.6508 3.513 3.0688 3.513 0.18292 0 0.61222 0.29766 0.95399 0.66146l0.62141 0.66146-0.62141 0.66146c-0.47571 0.50637-0.88776 0.66145-1.7575 0.66145-1.1165 0-1.1707-0.0431-3.1516-2.5059zm-3.7031 0.89693c-0.0972-0.15732-0.45318-0.21665-0.79103-0.13185-0.47894 0.1202-0.74303-0.0267-1.1988-0.66671l-0.58452-0.82088 0.76463-0.62526c0.51748-0.42316 1.112-0.62833 1.8393-0.63477 0.90545-8e-3 1.1723 0.1225 1.6944 0.82863l0.61967 0.83815-0.83867 0.74935c-0.9058 0.80934-1.2296 0.90902-1.505 0.46334zm8.6889-0.6878c-0.25559-0.39008-0.46669-0.85619-0.46912-1.0358-2e-3 -0.17962-0.265-0.62688-0.58351-0.99392-0.39093-0.45051-0.4769-0.70895-0.26458-0.79539 0.18679-0.0761 0.1452-0.13653-0.10239-0.14893-0.22929-0.0115-0.69058-0.31221-1.0251-0.66826s-0.84932-0.68347-1.144-0.7276c-0.29474-0.0441-0.78504-0.41516-1.0896-0.8245l-0.55367-0.74427 0.65941-0.50662c0.37809-0.29049 1.0882-0.50913 1.6644-0.51251 0.88968-5e-3 1.2116 0.19901 2.806 1.7801 0.99058 0.98226 1.8813 2.1182 1.9794 2.5244 0.0981 0.40613 0.29208 0.6681 0.43115 0.58216 0.46415-0.28687-0.0587 1.572-0.61459 2.1851-0.7068 0.77954-1.1269 0.75129-1.6938-0.11392zm1.9147-1.0918c-0.0815-0.0815-0.29496-1.7e-4 -0.47443 0.18065-0.25936 0.26131-0.22897 0.2917 0.14811 0.14812 0.26094-0.0994 0.40778-0.24731 0.32632-0.32877zm-2.256-2.4324c0-0.14552-0.0525-0.26458-0.11668-0.26458-0.0642 0-0.19026 0.11906-0.2802 0.26458-0.0899 0.14552-0.0374 0.26458 0.11668 0.26458 0.15411 0 0.2802-0.11906 0.2802-0.26458zm-102.44 3.5342c-0.24235-0.27034-0.52569-0.94975-0.62965-1.5098-0.18635-1.0039-0.15776-1.0497 2.0223-3.2411 1.9486-1.9587 2.322-2.2219 3.1432-2.2144 0.51254 5e-3 1.1579 0.17949 1.4341 0.38858 0.48003 0.36335 0.44834 0.44198-0.71645 1.7775-0.67028 0.76854-2.0274 2.2734-3.0158 3.3441-1.7238 1.8673-1.8151 1.9267-2.2377 1.4552zm6.3938-1.855c-0.59506-0.50071-0.79374-0.85715-0.69283-1.243 0.07781-0.29754 0.01558-0.69268-0.1383-0.87808-0.20468-0.24662-0.11294-0.54819 0.3418-1.1236 0.77749-0.98381 1.0167-0.99513 1.8629-0.0882 1.0088 1.0811 1.1483 2.3996 0.35001 3.3073-0.35198 0.40018-0.69607 0.7276-0.76464 0.7276-0.06858 0-0.50012-0.31591-0.95898-0.70202zm36.424-1.0619c-0.80509-0.80508 0.94152-4.4765 4.0698-8.5549 1.1713-1.527 1.2673-2.5914 0.11942-1.3229-0.26339 0.29105-0.79381 0.52917-1.1787 0.52917-0.3849 0-0.84355 0.14373-1.0192 0.31939-0.24947 0.24947-0.41381 0.22497-0.75066-0.11188-0.34603-0.34603-0.53027-0.36993-0.93222-0.12095-0.62725 0.38855-1.0906-0.17992-0.87928-1.0788 0.12784-0.54373 0.04545-0.59531-0.95097-0.59531-1.0217 0-1.2612 0.1647-3.7754 2.5967-3.0663 2.9661-5.2674 4.6896-6.3259 4.9532-1.4808 0.36879-2.0192-1.0702-0.91163-2.4364 0.33346-0.41135 1.0029-1.8195 1.4877-3.1292 1.0345-2.795 4.4635-10.067 4.656-9.8747 0.07296 0.073-0.42242 1.3126-1.1009 2.7547-1.651 3.5094-3.7884 8.672-3.6484 8.8121 0.06196 0.062 0.32302-0.0777 0.58015-0.31044 0.53875-0.48756 6.3933-3.36 6.8557-3.3636 0.47147-4e-3 1.8684-1.8978 2.6356-3.5735 0.57515-1.2563 0.66874-1.7812 0.57632-3.2326-0.09823-1.5426-0.2018-1.8145-0.94377-2.4774-1.5904-1.421-4.1901-1.2769-7.6566 0.42445-2.1988 1.0792-4.7318 3.4415-5.4878 5.1179-0.53376 1.1837-1.094 1.528-0.66946 0.41149 0.87833-2.3102 3.1567-4.4849 6.2925-6.0062 3.6543-1.7728 6.9525-1.6759 8.3542 0.2455 1.105 1.5147 0.78274 4.517-0.75969 7.0785l-0.8747 1.4526 1.0968 0.08c1.0607 0.0774 1.0946 0.10832 1.0297 0.9399-0.08888 1.1381 0.25847 1.0846 1.2896-0.19844 0.46778-0.58208 0.99803-1.0583 1.1783-1.0583 0.48358 0 0.13987 1.0252-0.44944 1.3406-0.45973 0.24605-0.70962 1.0406-0.32727 1.0406 0.0929 0 0.67114-0.463 1.285-1.0289 0.87393-0.80556 1.268-0.99986 1.8155-0.8952 0.46119 0.0882 0.69932 0.30338 0.69932 0.63201 0 0.63098 0.11516 0.62464 1.0373-0.0571 0.56243-0.41583 0.87567-0.49133 1.246-0.30034 0.27212 0.14032 0.64359 0.20176 0.82549 0.13654 0.1819-0.0652 0.33073 0.0104 0.33073 0.16805 0 0.15764-0.28475 0.28663-0.63278 0.28663-0.4543 0-0.6796 0.18656-0.79879 0.66146-0.18643 0.74282-0.80371 0.8753-1.1548 0.24786-0.2095-0.37436-0.26444-0.37385-0.57913 5e-3 -0.19122 0.2304-0.6095 1.1607-0.92953 2.0672-0.6411 1.8162-2.5584 5.7335-3.3642 6.8738-0.50005 0.70758-1.0008 0.91052-1.3601 0.55121zm2.9446-4.5303c0.93994-1.9338 1.6512-3.5739 1.5805-3.6446-0.1776-0.1776-2.6284 3.4185-3.4766 5.1013-0.38265 0.75915-0.69572 1.6965-0.69572 2.0829 0 1.26 0.77039 0.20783 2.5918-3.5397zm-13.307-0.034c1.5238-0.88349 6.4237-5.3771 6.0126-5.5141-0.41338-0.13779-3.676 1.4059-5.5496 2.6258-1.422 0.92583-1.6579 1.1927-1.6843 1.9055-0.01688 0.45585-0.08514 0.62046-0.15169 0.3658-0.16812-0.64335-0.58554-0.57836-0.84971 0.13229-0.53077 1.4279 0.2881 1.6065 2.2227 0.48479zm17.595-5.7415c0-0.21828-0.11906-0.32329-0.26459-0.23335-0.14552 0.0899-0.26458 0.34211-0.26458 0.56039s0.11906 0.32329 0.26458 0.23336c0.14553-0.0899 0.26459-0.34212 0.26459-0.5604zm-2.9104-0.37495c0-0.43301-0.38463-0.28289-0.7422 0.28967-0.31432 0.5033-0.29896 0.52281 0.20093 0.25528 0.2977-0.15933 0.54127-0.40455 0.54127-0.54495zm13.46 9.865c-0.51946-1.327-0.52506-2.5498-0.0255-5.5562 0.27206-1.6371 0.42634-2.9715 0.34286-2.9654-0.0835 6e-3 -0.77355 0.15654-1.5335 0.33418-1.3282 0.31047-1.4339 0.40323-2.7305 2.3982-0.74184 1.1414-1.4786 2.3602-1.6373 2.7085-0.33151 0.72758-0.83865 0.86504-0.62814 0.17026 0.75631-2.4962 0.88919-4.7685 0.29225-4.9976-0.87334-0.33513-0.30724-0.51193 1.3095-0.40898l1.7064 0.10866 1.4951-2.3176c1.8616-2.8857 4.4405-7.6097 4.8586-8.8999 0.32261-0.99542 1.0814-1.9056 1.0814-1.2972 0 0.17056-0.19727 0.69116-0.43837 1.1569-0.50327 0.97213-3.0552 10.009-2.8768 10.188 0.065 0.065 0.61422-0.0803 1.2205-0.3229 1.264-0.50576 1.4681-0.43196 1.0363 0.37483-0.48463 0.90555-0.1089 0.91962 0.55563 0.0208 0.75964-1.0275 1.0319-1.0297 1.0319-8e-3v0.80622l1.0582-0.85042c0.58202-0.46773 1.1366-0.77203 1.2324-0.67622 0.0958 0.0958 0.33622 0.0397 0.53424-0.12461 0.27397-0.22737 0.48008-0.19016 0.86222 0.15568 0.53975 0.48846 1.1803 0.31624 1.8572-0.49929 0.46645-0.56205 0.80574-0.51635 0.80574 0.10853 0 0.28593-0.23813 0.6473-0.52917 0.80306-0.51151 0.27375-0.74746 1.0583-0.31828 1.0583 0.11599 0 0.67593-0.47625 1.2443-1.0583 0.56839-0.58208 1.2176-1.0545 1.4428-1.0499 0.34368 7e-3 0.33507 0.0648-0.0537 0.3599-0.51067 0.38766-0.62072 0.95461-0.1853 0.95461 0.15275 0 0.629-0.18166 1.0583-0.40367 0.42933-0.22202 0.78061-0.30863 0.78061-0.19246 0 0.11616-0.41142 0.43277-0.91427 0.70357s-0.90546 0.56577-0.89471 0.65548c0.0682 0.56886-0.10927 0.82458-0.57227 0.82458-0.54777 0-0.73015-0.63831-0.26458-0.92604 0.14552-0.0899 0.26458-0.28162 0.26458-0.42596 0-0.14433-0.417 0.0556-0.92667 0.44437-0.77363 0.59008-0.99409 0.65085-1.335 0.36795-0.22456-0.18636-0.34707-0.49837-0.27226-0.69333 0.0949-0.2472-0.10169-0.35449-0.64941-0.35449-0.432 0-0.78545-0.11906-0.78545-0.26458 0-0.56704-0.57302-0.22052-1.0932 0.66106-0.52446 0.8889-1.2267 1.0438-0.90257 0.19915 0.10204-0.2659-0.14642-0.17545-0.70956 0.25831-0.67559 0.52037-1.1685 1.4073-2.2365 4.0239-1.3065 3.2009-2.4573 5.1763-3.0157 5.1763-0.14171 0-0.38583-0.32742-0.54247-0.72761zm2.0955-2.3812c0.60039-1.2733 1.2161-2.6723 1.3683-3.1088 0.26215-0.75197 0.25469-0.7659-0.14165-0.26458-0.91935 1.1628-2.4943 4.0309-2.6552 4.8351-0.3079 1.5395 0.31292 0.90425 1.4285-1.4616zm1.033-3.8307c0.57791-0.76713 1.1366-1.752 1.2415-2.1885 0.18941-0.78817 0.18775-0.78956-0.23589-0.19843-0.23464 0.32742-0.67188 0.59531-0.97164 0.59531-0.44197 0-0.52054-0.12796-0.41562-0.67681 0.0987-0.51634 0.0375-0.64154-0.25832-0.52804-0.21324 0.0818-0.64786 0.21407-0.96584 0.29387-0.5009 0.12572-0.63966 0.48785-1.0388 2.7108-0.25335 1.4112-0.45524 3.1611-0.44866 3.8887l0.012 1.3229 1.0153-1.9125c0.55839-1.0519 1.4881-2.5402 2.066-3.3073zm-6.2702-1.612c0-0.0338-0.44648-0.018-0.99219 0.035l-0.99218 0.0963-0.0748 1.4883-0.0748 1.4883 1.067-1.5232c0.58686-0.83776 1.067-1.5508 1.067-1.5846zm2.7046-0.98531c0.86064-0.23902 1.0205-0.41395 1.2681-1.3876 0.15582-0.61275 0.5233-1.9475 0.81663-2.9662 0.29333-1.0186 0.599-2.0902 0.67926-2.3812 0.0803-0.29104-0.6544 0.78052-1.6326 2.3812s-2.0151 3.2974-2.3042 3.7703c-0.59048 0.96584-0.45205 1.0347 1.1728 0.58344zm-17.247-2.8168c-0.0052-0.31883 0.11761-0.65818 0.27281-0.7541 0.45635-0.28204 0.49399-0.0348 0.10242 0.67274-0.35282 0.63751-0.36618 0.64041-0.37523 0.0814zm-80.575-16.221-3.6971-3.7042h59.714l1.6904 1.6536 1.6904 1.6536-0.69064 2.0505-0.69065 2.0505h-54.32zm120.92 2.3332c-0.22392-0.75402-0.40713-1.4684-0.40713-1.5875 0-0.11912 1.0674-0.21657 2.372-0.21657 2.2725 0 2.411-0.0342 3.3011-0.81571 0.74486-0.654 0.96326-1.0736 1.1016-2.1167l0.17258-1.301h27.615c15.188 0 27.615 0.0877 27.615 0.19489s-1.5759 1.7741-3.5021 3.7042l-3.502 3.5093h-54.359zm-63.58-6.6628-3.7671-3.8004v-8.5251l0.7276-0.36589c0.40018-0.20123 1.1423-0.44499 1.6492-0.54169s1.638-0.52262 2.5135-0.94651c0.87556-0.42389 2.2078-0.96362 2.9606-1.1994 0.75278-0.23578 1.5113-0.60056 1.6857-0.81063 0.26694-0.32164 0.13441-0.31717-0.83953 0.0284-1.2326 0.4373-8.0264 2.2347-8.4468 2.2347-0.14354 0-0.25038-1.3548-0.25038-3.175 0-2.0922 0.09721-3.175 0.28504-3.175 0.35202 0 3.9574-2.4603 3.8146-2.6031-0.0567-0.0567-0.88896 0.44628-1.8495 1.1177-0.96051 0.67145-1.8597 1.2208-1.9983 1.2208-0.15563 0-0.25191-4.3999-0.25191-11.512v-11.512l3.2741-3.2385c4.8016-4.7494 4.1735-4.3681 5.2741-3.2015 0.72943 0.77316 0.92506 0.87804 0.88975 0.47701-0.03385-0.38452 0.14876-0.53617 0.72472-0.60186 0.42349-0.0483 1.0476-0.26974 1.387-0.49211 0.37733-0.24724 0.79772-0.32529 1.0821-0.20092 0.25579 0.11187 0.55436 0.18449 0.6635 0.16139 0.10914-0.0231 0.19844 7.6329 0.19844 17.013v17.055l-1.1245 0.28784c-1.6718 0.42794-1.9785 0.5654-1.5875 0.71145 0.39907 0.14906 0.44957 0.9569 0.05152 0.82421-0.15356-0.0512-0.81024 0.40146-1.4593 1.0059-1.6054 1.495-2.6129 1.9035-3.2571 1.3206-0.53042-0.48002-1.1666-0.3525-1.9719 0.39527-0.46606 0.43279-0.45332 0.45749 0.32427 0.62827 0.44517 0.0978 0.93137 0.1024 1.0804 0.0103 0.14907-0.0921 0.27104-0.0531 0.27104 0.0868 0 0.2265-1.3577 0.83524-1.8629 0.83524-0.10803 0-0.27007-0.29345-0.36009-0.65212-0.10756-0.42857-0.29532-0.6016-0.54772-0.50474-0.31595 0.12124-0.28465 0.28181 0.17657 0.90564 0.48926 0.66175 0.51322 0.8157 0.18831 1.2095-0.33788 0.40952-0.32135 0.42411 0.17875 0.15773 0.48786-0.25986 0.74579-0.0957 2.249 1.4318 0.93384 0.94895 2.0551 1.9771 2.4917 2.2847 0.43656 0.30764-0.26422-0.54741-1.5573-1.9001l-2.351-2.4595 0.83541-0.4046c0.75762-0.36693 0.87993-0.36431 1.3135 0.0281 0.76914 0.69606 0.98514 0.49718 0.28414-0.26162-0.62264-0.67398-0.62463-0.68917-0.06805-0.5183 0.48177 0.1479 0.55082 0.0897 0.43216-0.36401-0.08282-0.31671-0.01304-0.54004 0.16874-0.54004 0.17048 0 1.0289-0.50601 1.9077-1.1245 2.5958-1.827 3.7579-2.5797 3.9827-2.5797 0.36493 0 0.26087 18.895-0.10608 19.262-0.38284 0.38285-2.3283 0.42706-2.3283 0.0529 0-0.14552 0.38695-0.27364 0.8599-0.28471l0.8599-0.0201-0.92604-0.34191c-0.50932-0.18805-1.0162-0.29053-1.1263-0.22773-0.11014 0.0628-0.58639-0.15077-1.0583-0.47462-0.82212-0.56413-0.81424-0.54265 0.18779 0.51243l1.0459 1.1013h-3.1565zm4.7657 2.8315c-0.1819-0.0734-0.47956-0.0734-0.66146 0s-0.03307 0.13346 0.33073 0.13346c0.3638 0 0.51263-0.0601 0.33073-0.13346zm-2.6107-4.9898c-0.98347-1.0945-2.629-2.7266-3.6567-3.6269l-1.8685-1.6369 1.5627 1.7087c1.4291 1.5626 5.4651 5.5038 5.6659 5.5329 0.04663 7e-3 -0.71987-0.88326-1.7033-1.9778zm1.8743-1.2511c-2.7356-2.9513-5.0918-5.3171-5.812-5.8356l-0.79375-0.57142 0.86036 1.0924c0.90981 1.1552 6.3454 6.439 6.624 6.439 0.09001 0-0.30538-0.50601-0.87864-1.1245zm-5.8336-19.145c0.51691-0.19836 0.55121-0.63315 0.04995-0.63315-0.20271 0-0.4371 0.17859-0.52086 0.39687-0.17026 0.44369-0.12663 0.46558 0.47092 0.23628zm10.323-11.084c-0.36974-0.88491-0.36257-0.92604 0.16141-0.92604 0.32558 0 0.47652-0.1162 0.37156-0.28603-0.10116-0.16367-0.46937-0.21258-0.86083-0.11433-0.52413 0.13155-0.80051 0.0283-1.1822-0.44158-0.27397-0.3373-0.39964-0.43468-0.27926-0.2164 0.28305 0.51327 2.0196 2.9104 2.1084 2.9104 0.03732 0-0.10626-0.41672-0.31907-0.92604zm-1.8187-1.1113c-0.12289-0.32025-0.24311-0.3552-0.46354-0.13477-0.22043 0.22043-0.20353 0.41097 0.06515 0.73471 0.41037 0.49447 0.66894 0.1051 0.39839-0.59994zm-0.14858-1.5021c0-0.0549-0.20836-0.2633-0.46302-0.46302-0.41964-0.32911-0.429-0.31975-0.0999 0.0999 0.34564 0.44073 0.56292 0.58089 0.56292 0.36313zm-0.94946-1.2892c-0.10282-0.1819-0.4968-0.7425-0.87551-1.2458s-0.9267-1.2879-1.2177-1.7435c-1.6795-2.6294-2.1483-3.2845-2.4342-3.402-0.37604-0.15447 1.4941 2.7293 3.2852 5.0659 1.2057 1.5729 1.6504 2.0473 1.2423 1.3254zm3.3307-5.8714c0-0.50071-0.45083-0.76375-0.96851-0.5651-0.33461 0.1284-0.35134 0.23438-0.08722 0.55261 0.41683 0.50225 1.0557 0.50981 1.0557 0.0125zm-10.39-0.30776c-0.08792-0.0879-0.31612-0.0973-0.50712-0.0209-0.21107 0.0845-0.14837 0.14716 0.15985 0.15985 0.27891 0.0115 0.43518-0.051 0.34726-0.13896zm10.92-2.6339c0-0.22687-0.11906-0.3389-0.26458-0.24897-0.14552 0.0899-0.26458 0.27556-0.26458 0.41249 0 0.13694 0.11906 0.24897 0.26458 0.24897s0.26458-0.18562 0.26458-0.41249zm2.126 49.642c-0.15064-0.28148-0.27389-1.2848-0.27389-2.2296 0-1.4135 0.08202-1.7392 0.46302-1.8388 0.44097-0.11524 0.44097-0.12247 0-0.1517-0.41952-0.0278-0.46302-0.41211-0.46302-4.0907 0-5.0224-0.05726-4.9358 3.262-4.9358h2.2943v-3.0366c0-2.8608 0.03446-3.0585 0.59531-3.4141 0.83913-0.53213 11.823-0.56035 12.546-0.0322 0.4389 0.32054 0.49243 0.88638 0.56618 5.9853 0.0448 3.0972 9e-3 5.9199-0.0795 6.2726-0.1528 0.60882-3.409 4.0146-3.8383 4.0146-0.11164 0-0.25851 0.21235-0.32638 0.4719-0.0679 0.25954-0.89863 1.1525-1.8461 1.9844l-1.7227 1.5125h-5.4515c-5.1189 0-5.4682-0.0312-5.7253-0.51177zm1.1922-5.5912c0.26372-0.4267-0.08109-0.62788-0.49185-0.28698-0.19881 0.165-0.4589 0.21173-0.57798 0.10385-0.11908-0.10788-0.13087-0.0473-0.02619 0.13459 0.23289 0.40469 0.85877 0.43241 1.096 0.0485zm22.611 5.3093c-0.51045-0.51045-0.52872-0.87305-0.5165-10.253l0.0127-9.7234 2.4817 2.6015c1.3649 1.4308 2.7464 2.9786 3.0699 3.4396 0.51191 0.72939 1.9036 2.0468 6.0031 5.6828 0.63387 0.5622 0.86919 0.92551 0.65693 1.0142-0.1819 0.076-0.33073 0.26197-0.33073 0.41318 0 0.16966 0.14752 0.1525 0.38529-0.0448 0.2119-0.17586 0.50956-0.24295 0.66145-0.14907 0.32109 0.19844 0.37979 2.5207 0.0637 2.5207-0.20404 0-3.6392-3.4797-5.6472-5.7204-0.53069-0.59219-1.0069-1.2937-1.0583-1.5589-0.0521-0.26869-0.34381-0.50063-0.65883-0.52378-0.31096-0.0229-1.1829-0.62798-1.9377-1.3447-0.75476-0.71675-1.5046-1.3502-1.6663-1.4077-0.46968-0.16692 3.9226 4.703 5.2995 5.876 0.6881 0.58612 2.2972 2.0872 3.5757 3.3356l2.3246 2.27-0.0546 1.5664c-0.0814 2.3379-0.37646 2.5346-3.8009 2.5346-2.5615 0-2.7781-0.0395-2.7781-0.50712 0-0.27892 0.14883-0.56717 0.33073-0.64057 0.26458-0.10676 0.26458-0.13763 0-0.15434-0.1819-0.0115-0.33255-0.22925-0.33478-0.48391-3e-3 -0.3957-0.0414-0.40532-0.26054-0.0661-0.14106 0.21828-0.2583 0.7243-0.26053 1.1245l-4e-3 0.72761h-2.5135c-2.1608 0-2.5878-0.0743-3.0427-0.52917zm5.9369-4.1785c-0.1101-0.39394-0.18897-0.95438-0.17528-1.2454 0.0228-0.48491 0.0131-0.48751-0.1164-0.031-0.11612 0.40938-0.61686 0.0322-2.8102-2.1167l-2.6689-2.6148 2.4272 2.6769c1.335 1.4723 2.6073 2.8263 2.8274 3.009s0.40955 0.64493 0.42103 1.0273c0.0115 0.38236 0.0827 0.54127 0.15813 0.35312 0.0755-0.18814 0.0472-0.66439-0.063-1.0583zm-2.2327 0.65857c0-0.0442-0.44649-0.4907-0.99219-0.99219l-0.99219-0.9118 0.9118 0.99219c0.84868 0.92351 1.0726 1.1138 1.0726 0.9118zm5.0271-2.0802c0-0.1525-0.17572-0.20985-0.39049-0.12743-0.2554 0.098-0.87329-0.42059-1.7859-1.4989-1.3015-1.5378-4.1067-4.1478-5.7209-5.3228-0.95985-0.69871 3.9475 4.3849 5.8948 6.1065 1.4617 1.2923 2.0025 1.5199 2.0025 0.84261zm12.105 5.947c-0.52552-0.13733-0.61501-0.5166-0.15786-0.66899 0.21285-0.0709 0.17703-0.29772-0.1184-0.74965-0.36514-0.55857-0.42484-1.7974-0.43286-8.9823-5e-3 -4.5839-0.0114-8.7213-0.0139-9.1943-4e-3 -0.76246-0.0878-0.85989-0.73882-0.85989-0.56067 0-1.1902-0.45901-2.6631-1.9419-1.8344-1.8468-1.9248-1.9948-1.8455-3.0222l0.0834-1.0804 3.5719 3.4077c1.9645 1.8742 3.4131 3.4128 3.2191 3.4191-0.19403 6e-3 -0.30074 0.16024-0.23714 0.34215 0.0636 0.1819 0.32049 0.29371 0.57084 0.24847 0.25037-0.0452 0.65473 0.0738 0.8986 0.26459 0.24386 0.19076-1.4824-1.6772-3.8363-4.1511-4.1141-4.324-4.2574-4.5111-3.7042-4.8397l0.57549-0.34176-0.57469 0.15461c-0.56003 0.15067-0.57481 0.0907-0.57982-2.3507-4e-3 -1.9707 0.0846-2.58 0.41537-2.8556 0.24271-0.20217 1.3828-0.4062 2.6965-0.48256l2.276-0.13229-0.0925-1.5875-0.0925-1.5875 0.73519 0.66146c0.40436 0.3638 2.6189 2.5135 4.9212 4.7771 3.473 3.4147 4.186 4.2447 4.186 4.8736 0 0.57308 0.41568 1.1886 1.7041 2.5231l1.7041 1.7651-0.0108 10.784c-0.0102 10.234-0.0365 10.81-0.51346 11.287-0.46366 0.46366-0.92857 0.50028-5.9928 0.47197-3.0196-0.0169-5.6985-0.0851-5.9531-0.1517zm0.59531-5.6541c0-0.13693-0.11906-0.24897-0.26458-0.24897s-0.26458 0.18562-0.26458 0.41249 0.11906 0.33891 0.26458 0.24897c0.14552-0.0899 0.26458-0.27556 0.26458-0.41249zm10.118-0.51355c0.73511-0.70637 0.95763-1.0583 0.66907-1.0583-0.23779 0-0.50793 0.23813-0.6003 0.52917-0.0924 0.29104-0.24922 0.53182-0.34856 0.53505-0.35384 0.0115-1.4972 1.0408-1.1626 1.0466 0.18752 3e-3 0.83659-0.47037 1.4424-1.0524zm-2.9026-0.81233c-0.0936-0.74812-0.30785-1.0468-1.0301-1.4358-0.5016-0.27013-1.4106-1.0357-2.0199-1.7012-0.60937-0.66553-1.4088-1.4374-1.7766-1.7152-0.36776-0.27781 0.34338 0.52873 1.5803 1.7923 2.0892 2.1342 2.1926 2.2901 1.4552 2.1944-0.43656-0.0566-0.59259-0.0521-0.34673 0.01 0.25033 0.0632 0.48317 0.42587 0.52917 0.8242 0.0687 0.59453 0.20159 0.70312 0.80975 0.66149 0.40018-0.0274 0.7276 0.0817 0.7276 0.24253 0 0.16079 0.0426 0.24274 0.0947 0.18211 0.0521-0.0606 0.0416-0.53533-0.0234-1.0549zm-3.5109-0.60187c0-0.0502-0.25859-0.3181-0.57465-0.59532-0.31606-0.27721-0.48762-0.3552-0.38126-0.1733 0.12991 0.22217-7e-3 0.34217-0.41754 0.36556-0.42659 0.0243-0.33152 0.0936 0.31512 0.22976 0.50932 0.1072 0.9558 0.21059 0.99218 0.22975 0.0364 0.0192 0.0661-6e-3 0.0661-0.0565zm2.8084-3.3176c-0.77474-0.78658-1.1427-1.3356-0.94045-1.403 0.22704-0.0757 0.27142-0.35349 0.14007-0.8768-0.13985-0.55722-0.25275-0.66814-0.41418-0.40694-0.12206 0.19749-0.16067 0.51871-0.0858 0.7138 0.18727 0.48802-0.16767 0.44435-0.8257-0.10157-0.3025-0.25097-0.10352 0.0219 0.44219 0.60646 0.5457 0.58453 0.99219 1.2136 0.99219 1.398 0 0.18436 0.10175 0.2723 0.22612 0.19544 0.12437-0.0769 0.50231 0.15423 0.83987 0.51355s0.67781 0.6533 0.75612 0.6533c0.0783 0-0.43038-0.58149-1.1304-1.2922zm-0.6119-3.801c-0.29788-0.32742-0.60689-0.7739-0.68669-0.99218-0.0805-0.22031-0.15437-0.0662-0.16597 0.34634-0.0115 0.40877 0.0847 0.67797 0.21372 0.59823 0.12903-0.0797 0.38173 0.0323 0.56156 0.24896 0.17983 0.21668 0.39267 0.39397 0.47298 0.39397 0.0803 0-0.0977-0.26789-0.3956-0.59532zm-4.3131-7.4284c0-0.0474-0.32742-0.37481-0.7276-0.7276l-0.72761-0.64143 0.64144 0.7276c0.59951 0.68006 0.81377 0.84894 0.81377 0.64143zm2.0788-1.5304c-0.63592-0.40294-1.182-0.27972-0.6109 0.13785 0.28087 0.20538 0.61399 0.30956 0.74027 0.23152 0.12629-0.078 0.0681-0.24426-0.12937-0.36937zm-5.8037-2.2861c-2.0629-2.1685-4.2125-4.1746-4.2125-3.9313 0 0.19739 5.5865 5.7173 5.7863 5.7173 0.0689 0-0.63931-0.80367-1.5738-1.7859zm1.7406-1.6536c0.0899-0.14552 0.0374-0.26459-0.11668-0.26459-0.15411 0-0.2802 0.11907-0.2802 0.26459s0.0525 0.26458 0.11668 0.26458c0.0642 0 0.19026-0.11906 0.2802-0.26458zm-1.0583-0.79375c-0.0899-0.14552 0.0221-0.26459 0.24897-0.26459s0.41249-0.11203 0.41249-0.24896c0-0.44424-0.54234-0.59865-0.94089-0.26788-0.29502 0.24485-0.31628 0.40955-0.0883 0.68424 0.34742 0.41861 0.60914 0.48778 0.36774 0.0972zm-1.5875-3.9688c0.0899-0.14552-0.0291-0.26459-0.26458-0.26459-0.23546 0-0.35452 0.11907-0.26458 0.26459 0.0899 0.14552 0.209 0.26458 0.26458 0.26458 0.0556 0 0.17465-0.11906 0.26458-0.26458zm-9.3732 20.791c-2.4509-2.7238-3.1945-3.7199-3.1945-4.2792 0-0.68882 0.11294-0.62047 2.0505 1.241 1.1278 1.0835 2.6756 2.5213 3.4396 3.1952 1.2503 1.1028 1.3891 1.3335 1.3891 2.3093 0 0.59624-0.1103 1.0841-0.24512 1.0841s-1.6826-1.5976-3.4396-3.5502zm0.15678-2.9354c-2.092-2.2118-3.2144-3.6121-3.3821-4.2196-0.22253-0.80592-0.33828-0.89815-1.0191-0.81199-0.6704 0.0848-1.056-0.20157-3.034-2.2534-1.9742-2.048-2.266-2.4711-2.266-3.2859 0-0.51437 0.0832-0.93522 0.18482-0.93522 0.10165 0 1.305 1.1609 2.6742 2.5797 1.3692 1.4188 3.1612 3.273 3.9824 4.1204 0.82116 0.84741 2.5943 2.5017 3.9404 3.6761 2.3854 2.0813 2.4474 2.1646 2.4474 3.2879 0 0.63388-0.0893 1.1524-0.19844 1.1524s-1.6074-1.4898-3.3295-3.3105zm-119.04-1.3075c-2.0009-1.9525-3.638-3.5874-3.638-3.6332-5.79e-5 -0.22641 72.068 0.0847 72.494 0.31295 0.55829 0.29878 0.70364 1.4829 0.57658 4.6971l-0.08629 2.1828-32.854-5e-3 -32.854-5e-3zm144.48 1.3769c-0.14277-3.6115 4e-3 -4.6766 0.66694-4.8369 0.82898-0.2004 72.139-0.28775 72.139-0.0884 0 0.0924-1.6291 1.7295-3.6202 3.638l-3.6202 3.47h-65.48zm-25.817-3.3589c-3.1694-3.3146-3.5057-3.7577-3.5057-4.6185 0-0.52372 0.0943-0.95222 0.20949-0.95222 0.11523 0 0.7403 0.54566 1.3891 1.2126 0.64877 0.66692 1.894 1.8252 2.7671 2.5739 0.87313 0.74872-1.0616-1.3482-4.2995-4.6597l-5.887-6.0211v-8.8417l2.712 2.7211 2.712 2.7211 0.0576 3.4724c0.0412 2.4812 0.15445 3.535 0.39688 3.6918 0.27027 0.17473 0.26105 0.26964-0.0454 0.46671-0.33641 0.21636-0.33644 0.33745-1.8e-4 0.96574l0.38445 0.71837 0.16486-1.0142c0.10469-0.64401 0.0229-1.3539-0.22396-1.9448-0.34684-0.83012-0.3432-1.0078 0.0338-1.646 0.52922-0.8959 0.53797-1.4589 0.0257-1.6555-0.46231-0.17741-0.53202-1.1125-0.10271-1.3778 0.16179-0.1 0.38346-0.0373 0.4926 0.13927 0.10914 0.1766 0.30419 0.3072 0.43344 0.29023 0.12925-0.017 1.5725 1.2298 3.2073 2.7707l2.9723 2.8016-0.0304 2.2338c-0.0259 1.8974-0.0969 2.2338-0.47199 2.2338-0.24284 0-0.55464-0.10568-0.69288-0.23484-0.13825-0.12917-0.53416-0.32052-0.8798-0.42522-1.0013-0.30333-0.44381 0.26848 0.85868 0.88072l1.163 0.54668 0.0277 3.3205c0.0153 1.8263-0.0601 3.3152-0.16746 3.3088-0.10736-6e-3 -1.7728-1.6615-3.7009-3.678zm-5.0932-10.862c0-0.14552-0.0525-0.26458-0.11668-0.26458-0.0642 0-0.19026 0.11906-0.2802 0.26458-0.0899 0.14552-0.0374 0.26459 0.11668 0.26459 0.15411 0 0.2802-0.11907 0.2802-0.26459zm-0.79375-1.1387c0-0.0442-0.44649-0.4907-0.99219-0.99219l-0.99219-0.9118 0.9118 0.99219c0.84868 0.92351 1.0726 1.1138 1.0726 0.9118zm1.3229-1.6394c0-0.21828-0.11532-0.39688-0.25628-0.39688-0.14095 0-0.18774 0.1786-0.10398 0.39688 0.0838 0.21828 0.19909 0.39687 0.25628 0.39687 0.0572 0 0.10398-0.17859 0.10398-0.39687zm-1.4672 13.882c-3.1229-2.7608-3.2967-2.9955-3.287-4.4379l8e-3 -1.242 3.0046 3.0726c2.6016 2.6605 2.9867 3.1662 2.8712 3.7703-0.0734 0.38373-0.21416 0.6977-0.31291 0.6977-0.0988 0-1.1267-0.83733-2.2843-1.8607zm12.466-3.3176c-0.25861-0.25861-0.41577-0.88026-0.41577-1.6446v-1.2288l1.4552 1.4371c0.80036 0.79042 1.4552 1.5305 1.4552 1.6446 0 0.38727-2.0721 0.21425-2.4946-0.2083zm-13.187-3.7561c-2.4861-2.4955-2.5747-2.6251-2.5747-3.7656v-1.1812l2.7714 2.762c1.5243 1.5191 2.6616 2.8298 2.5275 2.9127-0.14844 0.0917-0.14738 0.30329 3e-3 0.54061 0.29941 0.47346 0.33224 1.3159 0.0513 1.3159-0.11187 0-1.362-1.163-2.7781-2.5844zm7.1032-5.3991c-2.7904-2.9132-3.0696-3.2924-2.9211-3.9681 0.16235-0.73922 0.19715-0.71588 3.3182 2.2254 2.9437 2.7741 3.1541 3.0389 3.1541 3.9681 0 0.54759-0.10484 0.99562-0.23299 0.99562-0.12814 0-1.6213-1.4495-3.3182-3.221zm15.779-2.9888c-4.5119-4.5797-4.8199-4.9553-4.8199-5.8779v-0.98554l3.7703 3.7048c2.0737 2.0377 4.5442 4.3778 5.4901 5.2002l1.7198 1.4953-0.67017 0.67769-0.67018 0.67769zm-152.39 0.0534c-1.929-1.9255-3.5065-3.5902-3.5057-3.6993 0.0026-0.35113 65.306-0.2422 65.966 0.11004 0.5152 0.275 8.9337 6.3336 9.5605 6.8806 0.13824 0.12062-15.221 0.21711-34.131 0.21444l-34.383-5e-3zm177.24 3.0207c1.6475-1.2791 8.6997-6.3701 9.1806-6.6275 0.38698-0.2071 10.024-0.29097 33.432-0.29097h32.888l-3.6971 3.7042-3.6971 3.7042h-34.369c-33.502 0-34.353-0.0124-33.738-0.4899zm-20.484-1.8252c-2.0725-2.48-7.7556-8.2402-11.634-11.792-2.8351-2.5964-2.8371-2.5991-2.8336-3.8365l3e-3 -1.2382 2.4439 2.5491c6.6495 6.9356 9.3232 9.8706 9.3242 10.236 5.3e-4 0.23373 0.26687 0.42035 0.63867 0.44775 0.35064 0.0258 1.0176 0.45238 1.482 0.94788 0.46448 0.49551 1.028 1.02 1.2523 1.1655 0.22429 0.14553 0.80702 0.56018 1.295 0.92146l0.88715 0.65688-0.88052-1.1179c-1.972-2.5036-5.4279-6.192-8.1279-8.675-1.575-1.4484-4.0917-3.8169-5.5927-5.2633-2.5247-2.433-2.7291-2.7054-2.7291-3.638 0-0.55444 0.10796-1.0081 0.23991-1.0081s1.8873 1.7562 3.9007 3.9026c7.7465 8.2582 10.226 10.656 13.584 13.136 1.5435 1.14-7.368-8.5894-9.4402-10.307-2.5779-2.1362-8.2846-7.8877-8.2846-8.3496 0-0.23894 0.16491-0.5713 0.36647-0.73858 0.29437-0.24431 1.0072 0.36095 3.6234 3.0764 6.2344 6.4713 12.026 12.142 13.269 12.993l1.2516 0.8568-0.0137 2.5244c-0.0136 2.5119-0.0183 2.5296-0.95169 3.5627-0.51591 0.57105-1.033 1.0383-1.149 1.0383s-0.9821-0.92274-1.9246-2.0505zm-19.805-1.3397c-1.8397-1.9081-3.031-3.3576-3.0584-3.7212-0.0247-0.32752 0.0531-0.55807 0.17292-0.51235 0.11978 0.0457 1.5415 1.2738 3.1595 2.729 2.752 2.4753 2.9417 2.7098 2.942 3.638 2.1e-4 0.5457-0.0453 0.99219-0.10107 0.99219-0.0558 0-1.4575-1.4066-3.115-3.1257zm-0.82493-3.9038c-2.0023-2.12-3.5785-3.9548-3.5027-4.0775 0.0758-0.12264 0.34569-0.19145 0.59978-0.15292 0.31239 0.0474 0.44274 0.27534 0.40257 0.70404-0.0327 0.34869 7e-3 0.48515 0.0882 0.30325s0.26469-0.33073 0.4078-0.33073c0.44898 0 3.1784 2.4843 3.4232 3.1156 0.12835 0.33115 0.44351 0.67602 0.70035 0.76639 1.079 0.3796 1.9222 1.484 1.9222 2.5175 0 0.55486-0.0902 1.0088-0.20044 1.0088s-1.8387-1.7345-3.8409-3.8545zm-3.5361 2.9279c-0.21228-0.55318 0.12876-1.7754 0.44147-1.5821 0.34439 0.21285 0.33006 1.9796-0.0161 1.9796-0.15009 0-0.34153-0.17886-0.42541-0.39747zm-23.205-0.35097c-0.35245-0.38945-0.43788-1.0605-0.43788-3.4396v-2.9557h-1.1686c-0.67616 0-1.2336-0.13936-1.3229-0.33073-0.12347-0.26458-0.18521-0.26458-0.30868 0-0.23806 0.51012-1.8177 0.3999-2.3265-0.16233-0.3824-0.42254-0.44072-1.0858-0.40784-4.6377 0.03241-3.5004 0.09539-4.0973 0.4052-3.8402 0.48408 0.40175 0.4701-0.0518-0.02162-0.70197-0.21997-0.29082-0.39211-1.0983-0.39688-1.8616-0.01363-2.1829 0.09473-2.2238 5.8822-2.2238 2.7076 0 5.2423 0.12143 5.6327 0.26986 0.73942 0.28113 6.5917 6.0085 7.3999 7.242 0.7479 1.1414 0.18774 1.1524-0.72033 0.014-1.0146-1.2718-4.1165-4.2687-4.833-4.6693-0.74167-0.41469 3.0403 3.7217 4.6231 5.0563 1.2384 1.0442 1.3216 1.1923 1.3216 2.3513v1.2369l-3.1088-3.0452c-3.5563-3.4835-5.009-4.7928-4.685-4.2225 0.35212 0.61977 3.8139 4.433 5.9034 6.5028 1.6611 1.6454 1.8905 1.9905 1.8905 2.8443 0 0.53441-0.0893 0.96998-0.19844 0.96793-0.10914-2e-3 -1.1509-1.0774-2.3151-2.3896-1.9087-2.1514-3.8389-4.0022-6.2826-6.0242l-0.85881-0.71061 0.92109 1.1906c0.5066 0.65484 2.679 2.9184 4.8275 5.0302l3.9064 3.8396v1.7911c0 1.473-0.0823 1.8175-0.46302 1.9395-0.25466 0.0816-1.1328 0.43501-1.9513 0.78544-1.3773 0.58964-1.8231 0.63715-5.9783 0.63715-4.0138 0-4.5364-0.0513-4.9279-0.48386zm11.328-4.0802c-2.6358-2.8455-6.7519-6.9762-8.1916-8.2208l-1.5852-1.3703 1.3206 1.5616c1.2958 1.5322 9.089 9.1541 9.3598 9.1541 0.0759 0-0.33078-0.50601-0.90367-1.1245zm-4.8014-1.6524c-1.2829-1.3818-3.2259-3.3056-4.3178-4.2751-1.0918-0.96955-0.08154 0.16099 2.2451 2.5123 2.3266 2.3513 4.2696 4.2751 4.3177 4.2751 0.0481 0-0.96215-1.1305-2.2451-2.5123zm-8.5823-5.185c-0.57014-0.36108-0.76335-0.28558-0.76335 0.29827 0 0.46785 0.0741 0.49883 0.56491 0.23615 0.45134-0.24155 0.49124-0.34899 0.19844-0.53442zm-2.8477-3.3292c-0.2306-0.39655-0.28223-0.40798-0.28884-0.0639-0.0085 0.44558 0.26966 0.84677 0.45718 0.65925 0.06185-0.0619-0.01392-0.32974-0.16834-0.59531zm16.901 14.202c0.70766-0.55354 1.0583-0.65874 1.0583-0.3175 0 0.39493-0.63263 0.84669-1.1774 0.84078-0.5072-5e-3 -0.49948-0.0395 0.11906-0.52328zm9.8096-0.9015c-0.57379-0.61366-0.56096-0.81319 0.0461-0.71733 0.10914 0.0172 0.19844-0.23061 0.19844-0.55075 0-0.41284 0.0822-0.49991 0.28263-0.29945 0.15545 0.15544 0.24475 0.72608 0.19844 1.2681l-0.0842 0.98545zm6.9952-2.3396c-0.84261-0.9095-1.8714-2.0221-2.2862-2.4724-0.41482-0.45035-0.67619-0.89683-0.58083-0.99219 0.27472-0.27472 2.1534-0.20131 2.3341 0.0912 0.0899 0.14552 0.45014 0.26458 0.80044 0.26458h0.63692l-0.54638-0.92604c-0.3005-0.50933-0.71321-0.92604-0.91712-0.92604-0.2039 0-0.37074-0.11907-0.37074-0.26459s-0.41671-0.26458-0.92604-0.26458c-0.65519 0-0.92604-0.11851-0.92604-0.40518 0-0.22285-0.19668-0.48065-0.43707-0.5729-0.24039-0.0922-0.82773-0.59453-1.3052-1.1162-0.47747-0.52165-2.1849-2.3177-3.7943-3.9912s-2.9271-3.2283-2.9281-3.4552c-1e-3 -0.22685 0.14689-0.61136 0.32879-0.85447 0.29436-0.39341 0.55468-0.22232 2.367 1.5556 1.7952 1.7612 2.0484 2.1285 2.1387 3.1034 0.0855 0.92315 0.1367 1.0075 0.30974 0.51053 0.11401-0.32742 0.39045-0.59531 0.61431-0.59531 0.34016 0 0.32706-0.0884-0.0797-0.53786-0.45343-0.50103-0.80853-2.9017-0.42921-2.9017 0.0864 0 0.86845 0.68461 1.7378 1.5214 1.3332 1.2832 1.4197 1.335 0.55271 0.33073-0.56539-0.65485-1.2442-1.3467-1.5084-1.5374-0.58266-0.42061-1.3143-1.7708-1.0842-2.0009 0.61477-0.61477 1.5916 6e-3 4.8382 3.0753l3.4286 3.2412 6e-3 1.2788c5e-3 0.90757-0.0895 1.2468-0.32426 1.1686-0.1819-0.0606-0.33073-0.24915-0.33073-0.41893 1e-5 -0.16977-0.0893-0.30868-0.19842-0.30868h-0.38023c-0.1 0 0.12929 0.32742 0.50951 0.72761 0.68651 0.72255 0.69135 0.75745 0.69774 5.0271 4e-3 2.3647-0.0885 4.2995-0.20465 4.2995-0.1161 0-0.9005-0.74414-1.7431-1.6536zm-0.6652-2.8443c-0.15576-0.29104-0.3274-0.52916-0.38141-0.52916-0.054 0-0.0359 0.23812 0.0402 0.52916s0.24775 0.52917 0.38142 0.52917c0.13426 0 0.11629-0.23682-0.0402-0.52917zm0.20318-6.8792c-0.18176-0.29105-0.43935-0.52917-0.57242-0.52917s-0.0264 0.23812 0.23695 0.52917c0.26339 0.29104 0.52097 0.52916 0.57241 0.52916 0.0514 0-0.0552-0.23812-0.23694-0.52916zm-1.2615-1.3229c0-0.14552-0.12609-0.26458-0.28019-0.26458-0.15411 0-0.20662 0.11906-0.11668 0.26458 0.0899 0.14552 0.21603 0.26458 0.2802 0.26458 0.0642 0 0.11667-0.11906 0.11667-0.26458zm-7.8714 10.948c-1.6297-1.4518-1.6535-1.4928-1.6425-2.837l0.0111-1.3639 1.841 1.943c1.5376 1.6229 1.841 2.0916 1.841 2.8443 0 0.49568-0.0893 0.89795-0.19843 0.89395-0.10914-4e-3 -0.94258-0.67017-1.8521-1.4804zm28.773-2.921c-1.819-1.988-5.4057-5.6337-7.9705-8.1016-3.5197-3.3868-4.6313-4.609-4.5332-4.9843 0.0715-0.27343 0.2938-0.49714 0.49398-0.49714 0.20019 0 2.6828 2.292 5.517 5.0932 2.8341 2.8013 6.2055 6.0457 7.492 7.2099l2.339 2.1167 0.0422 1.3891c0.0232 0.76399 0.0163 1.389-0.0155 1.3889-0.0317-1.1e-4 -1.546-1.6267-3.365-3.6147zm-24.609 2.686c-0.17983-0.21668-0.54632-0.39396-0.81442-0.39396s-0.62259-0.25249-0.78775-0.5611c-0.21105-0.39435-0.21382-0.50765-9e-3 -0.38126 0.16406 0.1014 0.29098-9e-5 0.29098-0.23265 0-0.22687 0.11906-0.41249 0.26458-0.41249 0.14553 0 0.26459 0.17859 0.26459 0.39687 0 0.21829 0.14883 0.40062 0.33073 0.40519 0.44017 0.0111 1.3222 1.2429 1.0226 1.4281-0.12925 0.0799-0.38213-0.032-0.56196-0.24873zm-3.4856-2.7032c-0.5167-0.54891-1.253-1.2119-1.6361-1.4734-0.56967-0.38871-0.69521-0.67813-0.68863-1.5875l8e-3 -1.1121 1.9933 2.063c1.8514 1.9161 2.2876 2.767 1.545 3.0142-0.15515 0.0516-0.70485-0.35521-1.2216-0.90412zm24.689-6.4339c-3.6921-3.79-6.6418-6.9621-6.5548-7.0491 0.087-0.087 0.33961-8e-3 0.56141 0.17654 0.27578 0.22888 0.40327 0.2408 0.40327 0.0377 0-0.54802 0.68804-0.30405 1.4718 0.52189 0.42741 0.45038 2.2058 2.1412 3.9521 3.7573 1.7462 1.6162 2.669 2.404 2.0505 1.7508-0.61846-0.65321-1.1245-1.3856-1.1245-1.6275 0-0.24193-0.1861-0.54401-0.41354-0.67129-0.29943-0.16757-0.36278-0.43366-0.22959-0.96433 0.13467-0.53658 0.24436-0.63758 0.40948-0.37703 0.18486 0.29168 0.22627 0.28728 0.22959-0.0244 3e-3 -0.24777 0.28081-0.11509 0.79846 0.38086 0.5731 0.54906 0.7027 0.81775 0.46523 0.96452-0.26058 0.16105-0.25729 0.27465 0.0158 0.54519 0.28225 0.27958 0.39477 0.2535 0.61864-0.14341 0.26036-0.46161 0.3045-0.45616 0.90956 0.11226 0.75654 0.71073 0.79424 0.95418 0.17291 1.1166-0.30667 0.0801-0.2344 0.13136 0.21401 0.15169 0.79814 0.0362 1.2326 0.36466 2.1405 1.6182 0.61139 0.84417 0.67399 1.1775 0.70804 3.7703 0.0205 1.5644 0.01 2.8442-0.0243 2.8442-0.0339-3e-5 -3.0825-3.101-6.7746-6.891zm-10.689 5.2843c-0.92506-0.76251-0.98632-0.90528-0.98632-2.2986v-1.4855l1.9182 2.0732c1.055 1.1403 1.9579 2.1746 2.0064 2.2986 0.0485 0.12393-0.37085 0.22533-0.9319 0.22533-0.74844 0-1.2828-0.21652-2.0064-0.81302zm-9.6657-0.58864c-0.46511-0.47987-0.84565-1.1277-0.84565-1.4396 0-0.3119-0.11906-0.64068-0.26459-0.73062-0.14552-0.0899-0.26458-0.46873-0.26458-0.84176 0-0.58176 0.0582-0.62997 0.40892-0.33887 0.2249 0.18665 0.34533 0.50507 0.26761 0.7076-0.0828 0.21568-0.025 0.29637 0.13934 0.19478 0.15435-0.0954 0.80583 0.37467 1.4477 1.0446 0.64189 0.66992 1.043 1.218 0.89134 1.218-0.15167 0-0.19917 0.1239-0.10558 0.27534 0.0936 0.15144 0.38147 0.20828 0.63972 0.12632 0.2595-0.0824 0.61911 0.0312 0.80388 0.25382 0.2917 0.35147 0.1681 0.40285-0.96908 0.40285-1.127 0-1.4178-0.11807-2.1491-0.87249zm-4.7706-1.864c-1.6672-1.6551-1.9272-2.036-1.8453-2.7038 0.0952-0.77643 0.0977-0.77497 2.1666 1.2538 1.1392 1.1171 1.9924 2.1589 1.8958 2.3151-0.0965 0.15617 0.0101 0.28395 0.237 0.28395 0.5365 0 0.53244 0.42652-6e-3 0.63315-0.23018 0.0883-0.43854 0.15694-0.46302 0.15247-0.0245-4e-3 -0.91778-0.87506-1.9851-1.9346zm-64.132-0.21956c-0.35795-1.0738 3.4606-8.9096 6.7469-13.845 4.3724-6.5664 10.411-12.769 16.896-17.357 7.0883-5.0142 15.146-8.3219 24.439-10.033 0.87312-0.16074 1.8256-0.33832 2.1167-0.39464 0.29104-0.05631 2.5726-0.28559 5.0701-0.50951 4.0687-0.36478 5.0592-0.36554 9.525-0.0073 2.7412 0.2199 5.3413 0.50776 5.7778 0.63969 0.43656 0.13193 1.3295 0.31986 1.9844 0.41763 3.4632 0.51705 10.257 2.786 14.684 4.9041 6.5925 3.154 11.508 6.6308 17.123 12.112 5.763 5.6256 10.182 11.896 13.543 19.216 0.97831 2.1307 1.7416 4.1352 1.6962 4.4545-0.0802 0.56349-0.19458 0.58236-3.9191 0.64642-2.11 0.0363-3.9685-0.0233-4.13-0.1323-0.16144-0.10905-1.1491-1.848-2.1948-3.8643-2.2354-4.3102-4.3167-7.4808-7.0129-10.683-7.2536-8.6157-15.926-14.206-27.982-18.037-1.01-0.32093-3.8643-0.84174-8.1579-1.4885-4.2312-0.63736-12.74-0.42113-15.875 0.40342-0.50932 0.13396-2.2357 0.55362-3.8365 0.93258-1.6007 0.37896-3.1485 0.78843-3.4396 0.90994-0.29104 0.12151-1.3031 0.48586-2.249 0.80968-1.7114 0.58588-3.8314 1.5077-6.6245 2.8806-1.9945 0.98036-7.9953 4.9746-9.7759 6.5071-6.3049 5.4263-11.086 11.489-14.437 18.309-0.84382 1.7172-1.6623 3.2097-1.8188 3.3166-0.49913 0.34091-8.0328 0.24127-8.1491-0.10778zm64.13-2.8644c-1.608-1.6852-1.8932-2.1232-1.8932-2.9084v-0.92441l2.1492 2.1492c2.0314 2.0314 2.1352 2.1909 1.8932 2.9084l-0.25605 0.75917zm8.161-4.1014-2.7687-2.7781h1.193c1.1218 0 1.2991 0.10691 2.9718 1.7926 1.5562 1.5682 1.7788 1.9159 1.7788 2.7781 0 0.54205-0.0914 0.98555-0.20316 0.98555-0.11174 0-1.4491-1.2502-2.9718-2.7781zm-7.0046-0.65454c-0.86025-0.86932-1.4823-1.6623-1.3824-1.7623 0.0999-0.0999 0.40015 0.016 0.66716 0.25766 0.26701 0.24164 0.57803 0.43935 0.69115 0.43935 0.31384 0 1.3179 1.3486 1.5157 2.0359 0.0965 0.33545 0.15235 0.60991 0.124 0.60991-0.0284 0-0.75538-0.71127-1.6156-1.5806zm22.267 0.3078c-0.53625-0.54916-0.975-1.1032-0.975-1.2311s-0.19704-0.45033-0.43788-0.71645c-0.41721-0.461-0.38842-0.48385 0.60956-0.48385 0.84972 0 1.2169 0.1748 1.945 0.92604 0.64796 0.66852 0.7771 0.92604 0.46439 0.92604-0.23824 0-0.50675-0.11906-0.59668-0.26458-0.0899-0.14552-0.33108-0.26458-0.53586-0.26458-0.28606 0-0.24418 0.21721 0.1807 0.93733 0.76237 1.2921 0.5059 1.3592-0.65422 0.17113zm-13.675-1.2408-1.1685-1.1906h0.84884c1.0235 0 1.9072 0.79683 1.9072 1.7198 0 0.3638-0.0943 0.66146-0.20949 0.66146-0.11523 0-0.73533-0.53578-1.378-1.1906zm-7.9375-0.12876c-0.21828-0.12646-0.60523-0.29432-0.85989-0.37301-0.67348-0.20811-0.56717-0.68885 0.15231-0.68885 0.33844 0 0.89497 0.29765 1.2368 0.66146 0.62732 0.66775 0.32592 0.89581-0.52917 0.4004zm-9.6007-4.6654c-0.10387-0.10387-0.18884-0.58153-0.18884-1.0615 0-0.61366-0.16369-0.96024-0.55157-1.1678-0.75931-0.40637-1.3005-1.8292-1.3005-3.4191v-1.3314h3.4396v1.049c0 0.78501 0.13581 1.1217 0.53962 1.3378 0.48636 0.26029 0.53207 0.50283 0.46302 2.4567l-0.0766 2.1679-1.0679 0.0786c-0.58736 0.0432-1.1529-6e-3 -1.2568-0.11024zm2.9862-2.1392c0-2.0456 0.065-2.3727 0.52916-2.6626 0.53443-0.33375 0.66728-0.98114 0.36369-1.7723-0.091-0.23718-1.1767-1.0972-2.4127-1.9111-1.8584-1.2238-2.3383-1.686-2.774-2.6709-0.7957-1.7988-0.35386-4.4105 0.89624-5.2977 0.33237-0.23587 0.48718-0.67727 0.48718-1.3891v-1.0433h2.3812v2.3656c0 1.3011-0.11906 2.4392-0.26458 2.5292-0.37222 0.23004-0.32954 1.5384 0.0661 2.0275 0.1819 0.22486 1.0451 0.83412 1.9182 1.3539 0.87313 0.51979 1.9427 1.3168 2.3768 1.7711 0.70106 0.7337 0.80016 1.042 0.88685 2.7587 0.10556 2.0904-0.30524 3.3415-1.266 3.8557-0.33492 0.17924-0.53873 0.61419-0.59257 1.2646-0.0813 0.98169-0.0944 0.99219-1.3388 1.072l-1.2568 0.0806zm0.79375-10.646c0-0.5735-0.11906-1.1163-0.26459-1.2062-0.14552-0.08994-0.26458-1.2281-0.26458-2.5292v-2.3656h2.3812v0.95726c0 0.68634 0.22465 1.2131 0.79375 1.8613 0.70688 0.80509 0.79375 1.0912 0.79375 2.6146v1.7106h-3.4396z" stroke-width=".26458"/>
</g>
</svg>
