<svg id="Isolation_Mode" data-name="Isolation Mode" xmlns="http://www.w3.org/2000/svg" viewBox="0 0 2048 2048"><defs><style>.cls-1{fill:#1a1a1a;}.cls-2{fill:#d83850;}</style></defs><title>Colored - Simple</title><path class="cls-1" d="M2016.32423,992.95364,1852.38464,950.673a12.48342,12.48342,0,0,1-9.1156-9.72738A761.71552,761.71552,0,0,0,1727.7054,662.11777a12.47565,12.47565,0,0,1-.42566-13.32014l86.06342-145.8836a10.69808,10.69808,0,0,0-2.02894-12.88417L1690.46179,369.17819a10.69627,10.69627,0,0,0-12.88341-2.02894l-145.88694,86.0648a12.47,12.47,0,0,1-13.31439-.42531,763.90851,763.90851,0,0,0-128.64824-69.60922,12.574,12.574,0,0,0-16.85117,15.407l54.919,171.70786a12.38622,12.38622,0,0,0,4.93711,6.52555c165.278,110.33124,274.16649,298.50186,274.16649,512.13416a613.87732,613.87732,0,0,1-40.23128,219.24568,12.38261,12.38261,0,0,0-.23817,8.19727l54.814,171.38a12.56235,12.56235,0,0,0,22.62778,2.81034,761.016,761.016,0,0,0,99.39582-253.62233,12.48913,12.48913,0,0,1,9.11956-9.73113l163.93627-42.27944A10.69794,10.69794,0,0,0,2024,1174.40935V1003.49882A10.698,10.698,0,0,0,2016.32423,992.95364Z"/><path class="cls-1" d="M31.67577,992.95364,195.61536,950.673a12.48342,12.48342,0,0,0,9.1156-9.72738A761.71552,761.71552,0,0,1,320.2946,662.11777a12.47565,12.47565,0,0,0,.42566-13.32014L234.65684,502.914a10.69808,10.69808,0,0,1,2.02894-12.88417L357.53821,369.17819a10.69627,10.69627,0,0,1,12.88341-2.02894l145.88694,86.0648a12.47,12.47,0,0,0,13.31439-.42531,763.90851,763.90851,0,0,1,128.64824-69.60922,12.574,12.574,0,0,1,16.85117,15.407l-54.919,171.70786a12.38622,12.38622,0,0,1-4.93711,6.52555c-165.278,110.33124-274.16649,298.50186-274.16649,512.13416A613.87732,613.87732,0,0,0,381.331,1308.19977a12.38261,12.38261,0,0,1,.23817,8.19727l-54.814,171.38a12.56235,12.56235,0,0,1-22.62778,2.81034A761.016,761.016,0,0,1,204.7316,1236.9651a12.48913,12.48913,0,0,0-9.11956-9.73113L31.67577,1184.95453A10.69794,10.69794,0,0,1,24,1174.40935V1003.49882A10.698,10.698,0,0,1,31.67577,992.95364Z"/><path class="cls-2" d="M1393.934,1595.61448h220.41689a47.03461,47.03461,0,0,0,45.4344-33.43649,43.6634,43.6634,0,0,0-.31789-26.288l-.25761-.80785-64.2669-200.93607L1358.95454,596.31668l-64.38342-201.29933-59.22279-185.16753c-6.15369-19.23618-24.43326-32.33887-45.1182-32.33887H864.64992c-20.68494,0-38.96619,13.10269-45.1182,32.33887l-57.5889,180.05489-62.9115,196.7004-244.443,764.26454-59.17564,185.02029c-.14632.45688-.21619.91216-.34634,1.369-8.36106,29.1839,14.08994,58.3555,45.46285,58.3555H676.9573c21.5726,0,40.40561-14.23087,45.77115-34.58311l79.79761-302.68495H1240.7733l79.25681,302.61441c5.33943,20.38742,24.18911,34.65365,45.78933,34.65365H1393.934M868.44235,1008.31274l34.4437-130.64916c30.76912-118.09991,64.03084-253.22846,94.90705-381.68541,5.79338-24.1019,11.51132-47.99544,17.104-71.4688a5.65106,5.65106,0,0,1,10.93312.01221c5.50074,23.44431,11.24327,47.30864,17.12857,71.38,31.40491,128.47993,67.33735,263.63761,98.11389,381.762l34.21673,130.64916Z"/></svg>