<svg id="Layer_1" data-name="Layer 1" xmlns="http://www.w3.org/2000/svg" viewBox="0 0 70 70"><defs><style>.cls-1{fill:#fff;}</style></defs><title>Artboard 2</title><clipPath id="logopath"><path class="cls-1" d="M0,0V70H70V0ZM25.65,40.64a8.5,8.5,0,0,1-1.13,16.92,8.59,8.59,0,0,1-1.16-.08,22.67,22.67,0,0,1,0-44.85,8.5,8.5,0,1,1,2.29,16.84,5.67,5.67,0,0,0,0,11.16ZM53.37,56.28a8.5,8.5,0,0,1-8.54-14.7A7.82,7.82,0,0,0,49,34.93a7.82,7.82,0,0,0-4.17-6.65,8.5,8.5,0,0,1,8.54-14.7,24.36,24.36,0,0,1,0,42.7Z"/></clipPath></svg>