<?xml version="1.0" encoding="utf-8"?>
<!-- Generator: Adobe Illustrator 21.1.0, SVG Export Plug-In . SVG Version: 6.00 Build 0)  -->
<svg version="1.1" id="Layer_1" xmlns="http://www.w3.org/2000/svg" xmlns:xlink="http://www.w3.org/1999/xlink" x="0px" y="0px"
	 viewBox="0 0 70 70" style="enable-background:new 0 0 70 70;" xml:space="preserve">
<style type="text/css">
	.st0{fill:#FFFFFF;}
</style>
<path class="st0" d="M0,0v70h70V0H0z M25.6,40.6c4.7,0.6,7.9,4.9,7.3,9.6c-0.6,4.3-4.2,7.4-8.4,7.4c-0.4,0-0.8,0-1.2-0.1
	C12.3,56,4,46.3,4,35.1c0-11.3,8.3-20.9,19.4-22.4c4.7-0.6,8.9,2.6,9.6,7.3c0.6,4.7-2.6,8.9-7.3,9.6C23,29.8,21,32.2,21,35.1
	S23,40.3,25.6,40.6z M53.4,56.3c-1.3,0.8-2.8,1.2-4.3,1.2c-2.9,0-5.8-1.5-7.4-4.2c-2.4-4.1-1-9.3,3.1-11.6c2.6-1.5,4.2-4,4.2-6.6
	s-1.6-5.1-4.2-6.6c-4.1-2.4-5.4-7.6-3.1-11.6c2.4-4.1,7.6-5.4,11.6-3.1C61.3,18.2,66,26.2,66,34.9C66,43.7,61.3,51.7,53.4,56.3z"/>
</svg>
